<svg width="59" height="31" viewBox="0 0 59 31" fill="none" xmlns="http://www.w3.org/2000/svg">
<g clip-path="url(#clip0_13_8)">
<path d="M1 29.5L29.434 1L57.87 29.5" stroke="#40A2C9" stroke-width="2" stroke-linecap="round" stroke-linejoin="round"/>
<path d="M18.048 13.457C18.348 12.457 20.907 12.773 21.711 12.773C23.276 12.773 24.853 12.887 26.427 12.887H29.025C29.435 12.887 29.845 12.898 30.255 12.887C30.682 12.875 31.505 12.89 31.852 12.659" stroke="#40A2C9" stroke-width="3" stroke-linecap="round"/>
<path d="M22.725 12.316C22.401 12.276 22.497 11.463 22.497 11.239C22.497 10.719 23.447 9.42699 23.08 9.79399C22.335 10.539 21.575 11.242 20.805 11.962C20.054 12.662 20.512 11.92 20.855 11.512C21.522 10.719 22.373 10.044 23.188 9.40699C24.031 8.74799 25.558 7.91499 26.122 6.95399C26.555 6.21899 27.006 5.50199 27.409 4.72999C27.603 4.35999 27.97 3.44999 28.341 3.21499C28.435 3.15499 30.285 4.61999 30.534 4.81199C31.632 5.65999 32.344 6.95699 33.449 7.77799C34.808 8.78799 35.752 10.347 37.157 11.283C37.825 11.729 38.457 12.447 39.04 13.001C39.573 13.508 40.141 13.963 40.599 14.535C41.083 15.14 41.795 15.642 42.349 16.195C42.661 16.509 42.998 16.808 43.261 17.165C43.512 17.506 43.971 17.711 44.167 18.072C44.439 18.57 45.09 18.895 45.403 19.39C45.842 20.085 46.679 20.96 47.311 21.494C47.695 21.82 47.938 22.254 48.306 22.61C48.843 23.127 49.625 23.624 50.081 24.182C50.808 25.071 51.897 25.758 52.895 26.286C53.673 26.698 54.337 27.034 53.022 27.034C51.469 27.034 49.926 26.488 48.432 26.172C45.053 25.455 41.796 25.488 38.368 25.316C37.388 25.267 36.403 25.066 35.414 25.006C33.72 24.902 32.002 24.98 30.306 24.98H24.526C22.314 24.98 20.086 24.903 17.876 24.986C15.898 25.061 13.94 25.208 11.956 25.208C10.444 25.208 8.79 25.118 7.323 24.752" stroke="#40A2C9" stroke-width="3" stroke-linecap="round"/>
<path d="M7.323 24.752C7.449 24.335 8.219 23.952 8.573 23.757C9.337 23.336 10.118 22.972 10.835 22.47C11.861 21.752 12.85 20.759 13.706 19.846C14.886 18.586 15.916 17.196 17.059 15.904C17.534 15.367 18.034 14.856 18.504 14.313C18.979 13.763 19.659 13.279 20.038 12.659C20.586 11.762 21.496 11.244 22.206 10.497C22.92 9.74501 23.711 8.99501 24.576 8.41201C25.867 7.54201 27.003 6.68101 28.48 6.09901C28.942 5.91701 29.724 5.39701 30.192 5.86401C30.712 6.38401 31.282 7.23201 31.282 7.98101C31.282 9.01801 30.305 9.29601 29.444 9.52801C28.024 9.91001 26.682 10.338 25.235 10.58C24.788 10.655 24.279 10.713 23.86 10.897C23.278 11.152 23.064 11.338 23.695 10.669C25.011 9.27301 27.445 7.81501 29.431 7.75301C29.855 7.74001 29.436 9.40601 29.342 9.68601C29.143 10.283 28.292 13.178 29.906 11.968C30.382 11.611 30.597 11.242 30.597 10.668C30.597 10.224 30.807 10.798 30.939 10.973C31.326 11.484 31.669 12.024 32.08 12.519C32.687 13.2467 33.2602 14.0018 33.798 14.782C34.071 15.181 34.36 15.559 34.654 15.942C34.677 15.972 34.86 16.296 34.869 16.265C34.957 15.974 34.768 15.521 34.692 15.251C34.456 14.425 34.2529 13.5901 34.083 12.748C33.809 11.363 33.518 9.70301 32.79 8.46301C32.625 8.18101 31.698 7.23001 31.535 8.00701C31.118 9.99901 33.233 11.433 34.54 12.545C35.926 13.725 37.582 14.512 38.723 15.967C39.248 16.637 39.888 17.373 40.478 17.964C40.706 18.192 40.999 18.339 41.208 18.591C41.278 18.676 40.98 18.645 40.878 18.604C39.916 18.215 39.008 17.682 38.064 17.254C35.23 15.972 31.821 16.181 28.797 16.398C26.795 16.543 24.785 17.108 22.776 17.108C22.228 17.108 19.641 17.476 19.442 16.804C18.802 14.645 22.302 14.267 23.606 14.148C25.776 13.951 28.03 13.895 30.166 14.37C30.918 14.537 33.166 14.774 32.41 14.915C30.363 15.296 28.177 15.283 26.097 15.283C25.24 15.283 24.097 15.11 23.296 15.511" stroke="#40A2C9" stroke-width="3" stroke-linecap="round"/>
<path d="M22.383 15.511C21.178 15.511 20.103 16.65 19.303 17.451C18.489 18.264 17.975 19.243 16.907 19.776C16.744 19.858 16.222 20.264 16.222 19.903C16.222 19.453 16.158 19.681 15.905 19.479C15.822 19.412 15.409 19.276 15.424 19.504C15.434 19.659 17.218 19.291 17.369 19.282C19.201 19.174 20.997 19.048 22.839 19.048C23.446 19.048 24.16 19.147 24.741 18.984C26.251 18.561 27.732 18.026 29.266 17.684C31.577 17.171 33.914 17.222 36.264 17.222C37.104 17.222 37.966 17.421 38.761 17.704C39.606 18.005 40.579 18.075 41.385 18.427C42.059 18.72 42.69 19.017 42.912 19.796C43.039 20.238 40.187 20.072 39.959 20.068C38.571 20.042 37.198 19.876 35.813 19.796C34.108 19.696 32.401 19.772 30.699 19.618C26.775 19.263 22.753 19.504 18.815 19.504C17.075 19.504 14.724 19.707 13.193 20.657C12.865 20.861 12.089 21.172 12.007 21.621C11.887 22.281 12.742 22.346 13.231 22.356C16.266 22.419 19.244 22.014 22.275 22.014H45.315C45.554 22.014 46.252 22.078 45.682 21.874C44.987 21.626 44.27 21.398 43.527 21.329C40.294 21.029 36.868 20.398 33.639 21.101C32.841 21.275 32.027 21.189 31.219 21.304C30.726 21.374 30.24 21.444 29.742 21.444C28.491 21.444 27.089 21.293 25.92 21.76C25.502 21.927 24.708 21.786 24.284 21.786C23.28 21.786 22.31 21.558 21.299 21.558C18.897 21.558 16.61 21.748 14.245 22.103C13.861 22.16 13.722 22.182 13.459 22.445C13.388 22.515 13.103 22.54 13.193 22.585C13.345 22.661 13.719 22.585 13.89 22.585C15.439 22.585 16.98 22.356 18.536 22.356C19.307 22.356 19.996 22.511 20.729 22.756C21.763 23.1 22.874 23.163 23.955 23.155C28.626 23.121 33.307 22.471 37.981 22.591C39.376 22.626 40.791 22.857 42.164 23.091C43.05 23.243 43.997 22.995 44.864 23.211C45.504 23.371 46.675 23.096 47.165 23.586C47.312 23.733 48.058 24.396 48.027 24.391C47.687 24.342 47.347 24.027 47.026 23.896C46.702 23.765 46.364 23.642 46.05 23.491C45.569 23.26 45.133 22.981 44.63 22.813" stroke="#40A2C9" stroke-width="3" stroke-linecap="round"/>
<path d="M1 30H58" stroke="#40A2C9"/>
<path d="M6.24001 26.134C6.17701 26.15 6.16201 26.304 6.12401 26.352C6.03401 26.468 5.89501 26.572 5.77801 26.66C5.59101 26.8 5.75101 26.624 5.82501 26.564C5.87701 26.521 5.85601 26.659 5.85601 26.697" stroke="#40A2C9" stroke-width="3" stroke-linecap="round"/>
<path d="M9.28699 27.337C9.30799 27.391 9.39399 27.401 9.44099 27.409C9.83099 27.472 10.247 27.432 10.637 27.392C11.247 27.329 11.847 27.206 12.453 27.124C12.617 27.102 12.646 27.121 12.479 27.174C11.859 27.369 11.171 27.424 10.53 27.505C10.4014 27.521 10.2724 27.5323 10.143 27.539C10.097 27.539 10.105 27.536 10.145 27.525C10.368 27.465 10.595 27.42 10.817 27.36C11.211 27.255 11.605 27.15 12.004 27.064C12.106 27.042 12.416 26.996 12.312 27.008C11.412 27.108 10.53 27.158 9.62199 27.158C9.39299 27.158 9.112 27.196 8.883 27.144C8.785 27.122 8.95899 27.057 8.96599 27.056C9.45299 26.936 9.96899 26.894 10.465 26.816C10.889 26.748 11.314 26.691 11.739 26.632C11.843 26.617 11.833 26.619 11.733 26.621C11.373 26.626 11.013 26.658 10.653 26.671L10.217 26.683C10.177 26.684 10.136 26.688 10.095 26.686C10.041 26.684 10.062 26.669 10.095 26.649C10.531 26.382 10.971 26.148 11.378 25.833C11.787 25.5202 12.169 25.1736 12.52 24.797C12.756 24.541 12.99 24.241 13.085 23.898C13.126 23.746 13.127 23.574 13.011 23.455C12.877 23.317 12.727 23.495 12.621 23.583C12.372 23.785 12.129 23.994 11.861 24.171C11.75 24.245 11.619 24.321 11.501 24.385C11.439 24.418 11.291 24.527 11.305 24.459C11.355 24.232 11.621 23.954 11.762 23.779C11.979 23.509 12.222 23.259 12.457 23.005C12.5 22.959 12.521 22.935 12.562 22.897L12.538 22.916C12.362 23.036 12.177 23.146 11.995 23.258C11.852 23.346 10.959 23.896 11.002 23.984" stroke="#40A2C9" stroke-linecap="round"/>
<path d="M2.528 29.334C4.206 29.334 5.871 28.916 7.52 28.667C7.639 28.649 7.758 28.639 7.876 28.623C7.94 28.615 7.91 28.618 7.865 28.623C6.887 28.744 5.922 28.949 4.94 29.05C4.105 29.136 3.256 29.206 2.416 29.206C2.366 29.206 2.246 29.22 2.365 29.171C2.654 29.049 2.954 28.952 3.248 28.842C3.92 28.592 4.583 28.316 5.248 28.046C5.58 27.91 5.938 27.786 6.25 27.605C6.324 27.563 6.08 27.599 5.997 27.613C5.58 27.686 5.163 27.761 4.748 27.847C4.322 27.935 3.9 28.017 3.467 28.06C3.32 28.074 3.171 28.105 3.436 28.063C3.985 27.975 4.502 27.751 5.01 27.535C5.78 27.209 6.533 26.932 7.336 26.7C7.686 26.599 8.054 26.54 8.399 26.422C8.569 26.364 8.734 26.2 8.892 26.112C9.122 25.982 9.353 25.849 9.597 25.747C9.667 25.718 9.902 25.623 9.734 25.779C9.252 26.224 8.787 26.704 8.277 27.116C7.97162 27.3604 7.65207 27.5864 7.32 27.793C7.066 27.952 6.8 28.123 6.512 28.213C6.479 28.224 6.38 28.247 6.408 28.226C6.54 28.13 6.695 28.056 6.835 27.972C7.40922 27.6273 8.00363 27.3174 8.615 27.044C8.645 27.031 8.858 26.938 8.923 26.922C8.966 26.912 8.851 26.974 8.812 26.993C8.429 27.186 8.035 27.359 7.64 27.525C6.874 27.848 6.106 28.163 5.343 28.492C5.184 28.561 5.391 28.444 5.411 28.44C5.573 28.404 5.776 28.44 5.941 28.437C6.429 28.427 6.914 28.353 7.402 28.326C8.026 28.292 8.647 28.361 9.27 28.339C10.351 28.299 11.42 28.096 12.464 27.819C12.646 27.77 12.831 27.729 13.011 27.676C13.168 27.629 12.691 27.75 12.53 27.778C10.968 28.051 9.38 28.213 7.802 28.358C7.48318 28.3886 7.16325 28.4063 6.843 28.411C6.707 28.413 6.306 28.437 6.435 28.394C7.346 28.091 8.289 27.874 9.21 27.604C9.64 27.48 10.936 27.134 10.506 27.255C9.761 27.465 9.018 27.688 8.279 27.915C8.044 27.987 7.808 28.057 7.577 28.14C7.375 28.212 7.537 28.207 7.649 28.208C7.935 28.211 8.221 28.209 8.508 28.202C8.838 28.194 8.7 28.195 9.025 28.182C9.125 28.179 9.235 28.142 9.327 28.185C9.338 28.19 9.324 28.213 9.314 28.221C9.237 28.28 9.014 28.355 8.958 28.374C8.371 28.578 7.766 28.724 7.163 28.874C6.823 28.958 6.486 29.052 6.141 29.114C5.954 29.148 5.757 29.164 5.578 29.229C5.444 29.277 5.784 29.258 5.8 29.258C6.31 29.255 6.82 29.235 7.327 29.181C8.729 29.032 10.127 28.851 11.528 28.694C11.894 28.654 12.26 28.634 12.626 28.619C12.75 28.614 12.853 28.596 12.649 28.626C12.439 28.657 12.233 28.716 12.026 28.766C11.498 28.891 10.964 28.989 10.431 29.09C10.078 29.156 9.726 29.228 9.372 29.286C9.322 29.294 9.004 29.299 8.957 29.36C8.933 29.391 9.031 29.393 9.071 29.397C9.364 29.426 9.664 29.411 9.958 29.411C10.859 29.411 11.743 29.331 12.641 29.261C12.676 29.259 13.408 29.279 13.431 29.215C13.449 29.168 13.418 29.088 13.406 29.045C13.361 28.8778 13.3276 28.7078 13.306 28.536C13.246 28.056 13.206 27.565 13.241 27.081C13.265 26.751 13.306 26.426 13.306 26.094C13.306 25.928 13.296 25.766 13.268 25.601C13.241 25.441 12.989 25.721 12.928 25.761C12.007 26.364 10.816 26.552 9.751 26.721C8.77562 26.8744 7.7877 26.9334 6.801 26.897C6.481 26.885 6.151 26.88 5.834 26.831C5.778 26.823 5.769 26.801 5.754 26.749C5.72 26.631 5.534 26.599 5.435 26.585C5.414 26.582 5.17 26.595 5.194 26.53C5.235 26.415 5.516 26.34 5.61 26.303C5.658 26.285 6.229 26.095 6.121 26.299C6.077 26.383 5.891 26.484 5.882 26.569C5.877 26.618 6.038 26.595 6.062 26.595" stroke="#40A2C9" stroke-linecap="round"/>
<path d="M12.64 27.107C12.959 27.005 13.303 26.967 13.63 26.915C14.836 26.725 16.071 26.725 17.289 26.692C17.681 26.682 18.855 26.646 18.464 26.646C18.108 26.646 17.753 26.706 17.4 26.743C16.336 26.854 15.275 26.977 14.214 27.11C13.869 27.153 13.524 27.2 13.178 27.24C12.383 27.328 14.762 27.004 15.554 26.885C17.033 26.662 18.509 26.429 19.983 26.174C20.556 26.074 21.359 25.932 21.948 25.836C22.301 25.778 22.692 25.692 23.055 25.696C23.158 25.697 23.197 25.704 23.069 25.76C22.865 25.849 22.452 25.966 22.285 26.015C20.9212 26.4032 19.5409 26.7305 18.148 26.996C17.032 27.215 15.918 27.44 14.808 27.686C14.676 27.716 14.542 27.737 14.413 27.778C14.313 27.81 14.622 27.788 14.726 27.781C15.854 27.706 16.949 27.481 18.053 27.246C18.931 27.059 16.286 27.579 15.397 27.71C14.713 27.81 14.027 27.898 13.341 27.975C13.164 27.995 13.015 28.01 12.843 28.023L12.769 28.027C12.73 28.03 12.741 28.029 12.79 28.027C13.71 27.994 14.617 27.834 15.514 27.637C15.669 27.603 16.11 27.472 15.987 27.574C15.807 27.724 15.494 27.772 15.277 27.835C14.827 27.968 14.372 28.086 13.927 28.238C13.84 28.268 13.604 28.321 13.813 28.348C14.559 28.443 15.308 28.373 16.056 28.414C16.284 28.427 15.604 28.484 15.38 28.526C14.908 28.616 14.432 28.691 13.962 28.793C13.867 28.813 13.59 28.873 13.686 28.886C14.109 28.948 14.558 28.927 14.985 28.925C15.482 28.922 16.965 28.729 16.472 28.801C15.829 28.895 15.179 29.071 14.547 29.221C14.467 29.24 14.232 29.306 14.315 29.306C14.497 29.306 14.687 29.256 14.868 29.238C15.597 29.163 16.328 29.085 17.058 29.041C17.371 29.023 17.686 29.001 18 29.001C18.041 29.001 18.05 29.003 18.006 29.007C17.793 29.027 17.582 29.046 17.37 29.073C16.264 29.213 15.165 29.427 14.054 29.523C13.907 29.5347 13.7595 29.54 13.612 29.539C13.422 29.539 13.989 29.478 14.177 29.442C15.077 29.272 15.991 29.19 16.905 29.145C17.668 29.108 18.434 29.059 19.198 29.053C19.77 29.048 20.342 28.976 20.913 28.976C21.619 28.976 22.341 28.893 23.043 28.987C23.343 29.027 23.649 29.078 23.953 29.078H24.12C23.805 29.078 23.488 29.07 23.174 29.11C22.844 29.151 22.518 29.197 22.184 29.205C21.525 29.221 20.864 29.206 20.204 29.206H19.784C19.388 29.206 19.045 29.162 18.657 29.078C17.8214 28.9066 16.9802 28.7632 16.135 28.648C15.723 28.588 15.29 28.523 14.905 28.356C14.722 28.276 14.567 28.15 14.399 28.046C14.332 28.004 14.226 27.969 14.167 27.916C14.147 27.898 14.22 27.903 14.247 27.902C14.504 27.896 14.762 27.901 15.019 27.901C16.592 27.901 18.157 27.89 19.729 27.798C21.069 27.72 25.092 27.524 23.749 27.542C22.62 27.558 21.505 27.789 20.377 27.835C19.77 27.86 19.162 27.877 18.555 27.875C18.529 27.875 18.092 27.912 18.287 27.765C18.6 27.528 19.089 27.427 19.449 27.316C20.382 27.029 21.329 26.771 22.279 26.544C23.113 26.344 23.962 26.142 24.814 26.034C24.82 26.034 25.306 25.95 25.328 26.044C25.352 26.148 25.016 26.264 24.972 26.282C24.373 26.523 23.714 26.64 23.085 26.764C22.33 26.914 21.572 27.044 20.812 27.16C20.721 27.174 20.265 27.302 20.159 27.224C20.129 27.202 20.225 27.191 20.261 27.184C20.389 27.16 20.593 27.139 20.711 27.127C21.27 27.07 21.826 27.015 22.384 26.941C22.796 26.886 23.209 26.818 23.627 26.825C23.905 26.831 23.539 26.995 23.472 27.022C23.054 27.192 22.601 27.273 22.162 27.366C21.1553 27.578 20.1452 27.7734 19.132 27.952C18.743 28.021 18.354 28.086 17.97 28.178C17.924 28.189 18.198 28.202 18.2 28.202C19.103 28.233 20 28.122 20.893 27.989C21.502 27.899 22.097 27.823 22.713 27.862C23.093 27.887 23.504 27.816 23.877 27.881C23.913 27.887 23.897 27.908 23.917 27.926C23.96 27.966 24.047 27.952 24.099 27.952C24.202 27.952 24.509 27.933 24.409 27.958C23.739 28.121 23.076 28.273 22.418 28.487C22.258 28.539 22.088 28.61 21.917 28.617C21.751 28.625 21.585 28.615 21.419 28.632C21.305 28.643 20.984 28.717 21.312 28.689C22.048 28.625 22.779 28.461 23.51 28.359C23.575 28.349 24.096 28.29 24.084 28.285" stroke="#40A2C9" stroke-linecap="round"/>
<path d="M24.033 26.877C24.502 26.773 25.046 26.877 25.518 26.891C27.054 26.936 28.596 26.846 30.129 26.774C30.771 26.744 31.416 26.697 32.059 26.697C32.221 26.697 31.738 26.725 31.577 26.741C30.951 26.807 30.327 26.886 29.7 26.951C27.77 27.15 25.82 27.275 23.88 27.286C23.423 27.289 24.091 27.261 24.107 27.261C25.3197 27.2056 26.531 27.1229 27.74 27.013C30.264 26.791 32.782 26.543 35.318 26.543H36.5C36.768 26.545 36.673 26.575 36.456 26.609C35.139 26.817 33.802 26.947 32.479 27.117C31.314 27.267 30.16 27.312 28.988 27.312C28.793 27.312 28.645 27.369 28.454 27.402C28.119 27.462 27.784 27.546 27.452 27.619C26.912 27.739 26.374 27.809 25.827 27.889C25.553 27.929 25.294 27.977 25.017 27.977C24.877 27.977 24.757 28.047 24.621 28.054C24.225 28.078 25.415 28.057 25.811 28.053C27.863 28.033 29.911 27.875 31.963 27.875C32.303 27.875 32.643 27.881 32.981 27.855C33.027 27.852 33.161 27.84 33.118 27.855C32.878 27.941 32.601 27.966 32.354 28.015C31.3015 28.2278 30.2378 28.381 29.168 28.474C28.18 28.559 27.187 28.561 26.2 28.644C25.864 28.671 25.53 28.708 25.197 28.758C25.037 28.783 24.864 28.774 24.707 28.808C24.599 28.831 24.099 28.91 24.062 29.038C24.042 29.108 24.555 29.181 24.58 29.181C25.162 29.181 25.74 29.166 26.32 29.104C26.642 29.069 26.967 29.027 27.292 29.027C27.587 29.027 27.868 29.025 28.16 28.987C28.886 28.894 29.654 28.946 30.384 28.95C30.78 28.953 31.174 28.976 31.57 28.976H32.048C32.061 28.976 32.268 28.996 32.253 29.003C32.195 29.035 32.115 29.05 32.051 29.066C31.823 29.119 31.599 29.193 31.368 29.238C30.754 29.358 30.128 29.398 29.504 29.41C28.895 29.421 28.294 29.459 27.688 29.52C27.561 29.532 27.423 29.527 27.299 29.553C27.262 29.561 27.182 29.585 27.282 29.589C27.534 29.599 27.792 29.596 28.043 29.579C29.473 29.482 30.906 29.386 32.341 29.386C32.949 29.386 33.547 29.366 34.153 29.336C34.395 29.323 34.634 29.339 34.876 29.315C34.955 29.306 35.142 29.317 35.189 29.232C35.244 29.133 35.039 28.982 34.977 28.948C34.408 28.631 33.634 28.637 33.003 28.608C32.543 28.587 32.056 28.62 31.602 28.535C31.411 28.499 31.976 28.419 32.169 28.4C32.702 28.347 33.221 28.234 33.758 28.234C33.95 28.234 34.243 28.389 33.903 28.501C33.566 28.611 32.929 28.631 32.748 28.253C32.631 28.01 32.663 27.488 32.961 27.396C33.144 27.34 33.361 27.362 33.549 27.364C33.698 27.367 33.864 27.355 33.999 27.428C34.211 27.542 34.101 27.834 33.986 27.983C33.972 28.001 33.686 28.294 33.661 28.241C33.604 28.111 33.896 27.872 33.966 27.798" stroke="#40A2C9" stroke-linecap="round"/>
<path d="M34.71 27.517H35.96C37.554 27.517 39.142 27.424 40.734 27.393C40.992 27.388 41.251 27.389 41.509 27.389H40.956C39.416 27.384 37.877 27.312 36.336 27.312H35.378H36.078C37.198 27.312 38.293 27.116 39.408 27.044C39.828 27.018 41.087 26.979 40.668 26.954C40.35 26.937 40.026 26.954 39.71 26.971C38.984 27.007 38.262 27.049 37.535 27.054C37.177 27.057 36.812 27.071 36.455 27.042C36.265 27.026 36.34 27.005 36.47 27.005C37.084 27.001 37.69 26.982 38.3 26.912C38.983 26.835 39.66 26.756 40.347 26.734C41.543 26.697 42.719 26.868 43.908 26.926C44.395 26.95 44.879 26.97 45.365 27.013C45.399 27.016 45.722 27.029 45.676 27.032C44.06 27.115 42.443 27.227 40.828 27.332C39.314 27.43 37.8 27.559 36.285 27.625C35.871 27.643 35.455 27.652 35.042 27.625C34.872 27.614 34.885 27.593 35.028 27.593C35.135 27.593 35.221 27.588 35.312 27.523C35.376 27.476 35.375 27.433 35.388 27.359C35.431 27.099 35.4 26.814 35.4 26.552C35.4 26.43 35.381 26.297 35.42 26.18C35.488 25.975 35.454 26.3 35.457 26.37C35.475 26.773 35.461 27.146 35.387 27.544C35.349 27.744 35.274 27.927 35.22 28.117C35.172 28.283 34.225 28.21 34.225 28.169C34.225 28.14 37.401 28.007 37.588 27.997C38.602 27.942 39.608 27.786 40.623 27.747C41.58 27.71 42.534 27.683 43.487 27.587C44.36 27.5 45.207 27.301 46.083 27.237C46.462 27.209 46.896 27.16 47.275 27.225C47.69 27.297 47.282 27.432 47.09 27.49C45.48 27.97 43.793 27.686 42.16 27.94C41.319 28.072 40.455 27.981 39.608 28.02C39.183 28.04 38.763 28.107 38.338 28.125C38.09 28.137 37.84 28.125 37.591 28.134C37.168 28.149 36.781 28.246 36.373 28.336C36.175 28.38 35.937 28.412 35.77 28.535C35.674 28.605 35.585 28.816 35.753 28.842C36.143 28.902 36.586 28.828 36.973 28.795C38.063 28.705 39.146 28.637 40.239 28.606C41.251 28.577 42.257 28.474 43.269 28.444C44.086 28.419 44.908 28.417 45.723 28.362C46.223 28.328 46.719 28.272 47.22 28.246C47.373 28.238 47.525 28.234 47.678 28.234C47.684 28.234 47.817 28.238 47.806 28.248C47.788 28.263 47.716 28.275 47.713 28.276C47.536 28.316 47.359 28.352 47.183 28.393C46.463 28.561 45.739 28.704 45.008 28.815C43.7165 29.0135 42.4174 29.1596 41.114 29.253C40.301 29.31 39.494 29.393 38.683 29.463C38.152 29.508 37.606 29.583 37.073 29.59C36.673 29.595 36.272 29.59 35.871 29.59H35.611C35.457 29.59 35.913 29.539 36.063 29.505C36.295 29.453 36.556 29.485 36.791 29.47C37.309 29.433 37.82 29.352 38.339 29.329C39.993 29.255 41.651 29.283 43.305 29.283H45.029C45.229 29.283 45.431 29.273 45.629 29.297C46.088 29.354 46.551 29.334 47.012 29.334C47.069 29.334 47.372 29.377 47.382 29.289C47.398 29.137 47.293 28.959 47.254 28.814C47.205 28.634 47.171 28.294 47.279 28.131" stroke="#40A2C9" stroke-linecap="round"/>
<path d="M47.382 28.054C47.775 28.008 48.132 27.952 48.532 27.952H51.533C52.989 27.952 48.621 27.955 47.168 28.034C46.916 28.048 46.159 28.08 46.412 28.08C46.879 28.08 47.345 28.136 47.812 28.151C48.277 28.166 48.745 28.163 49.211 28.188C49.229 28.188 49.424 28.184 49.435 28.236C49.446 28.286 49.268 28.356 49.242 28.367C48.709 28.599 48.121 28.705 47.565 28.872C47.421 28.916 47.538 28.959 47.624 28.987C47.882 29.074 48.154 29.073 48.426 29.078C48.499 29.08 48.571 29.1 48.645 29.104C48.687 29.106 48.449 29.162 48.415 29.167C48.307 29.18 48.037 29.141 47.951 29.212C47.935 29.225 47.988 29.229 48.008 29.23C48.138 29.238 48.27 29.233 48.4 29.23C50.198 29.193 51.997 29.155 53.796 29.155H55.472C55.682 29.155 55.892 29.206 56.108 29.206C56.148 29.206 56.192 29.203 56.233 29.209C56.289 29.218 56.342 29.239 56.393 29.263C56.399 29.266 56.548 29.351 56.55 29.331C56.561 29.18 56.323 28.967 56.223 28.886C56.052 28.749 55.881 28.678 55.683 28.598C55.5191 28.5231 55.3402 28.4865 55.16 28.491C54.953 28.503 54.747 28.569 54.542 28.598C54.179 28.648 53.817 28.705 53.452 28.731C52.278 28.817 51.088 28.771 49.911 28.771C49.816 28.771 49.656 28.803 49.611 28.683C49.576 28.583 49.851 28.549 49.896 28.535C50.369 28.388 50.793 28.277 51.294 28.263C51.814 28.249 52.334 28.259 52.854 28.259C53.324 28.259 53.801 28.237 54.271 28.265C54.477 28.277 54.718 28.319 54.923 28.273C55.103 28.233 55.14 28.04 55.163 27.875C55.205 27.582 54.541 27.824 54.423 27.824" stroke="#40A2C9" stroke-linecap="round"/>
</g>
<defs>
<clipPath id="clip0_13_8">
<rect width="59" height="31" fill="white"/>
</clipPath>
</defs>
</svg>
