<svg width="59" height="31" fill="none" xmlns="http://www.w3.org/2000/svg"><path d="M58 1.5 29.566 30 1.13 1.5" stroke="#fff" stroke-width="2" stroke-linecap="round" stroke-linejoin="round"/><path d="M40.952 17.543c-.3 1-2.859.684-3.663.684-1.565 0-3.142-.114-4.716-.114h-2.598c-.41 0-.82-.011-1.23 0-.427.012-1.25-.003-1.597.228" stroke="#fff" stroke-width="3" stroke-linecap="round"/><path d="M36.275 18.683c.324.041.228.854.228 1.078 0 .52-.95 1.812-.583 1.445.745-.745 1.505-1.448 2.275-2.168.751-.7.293.042-.05.45-.667.793-1.518 1.468-2.333 2.105-.843.659-2.37 1.492-2.934 2.453-.433.735-.884 1.452-1.287 2.224-.194.37-.561 1.28-.932 1.515-.094.06-1.944-1.405-2.193-1.597-1.098-.848-1.81-2.145-2.915-2.966-1.359-1.01-2.303-2.569-3.708-3.505-.668-.446-1.3-1.164-1.883-1.718-.533-.507-1.101-.962-1.559-1.534-.484-.605-1.196-1.107-1.75-1.66-.312-.314-.649-.613-.912-.97-.251-.341-.71-.546-.906-.907-.272-.498-.924-.823-1.236-1.318-.439-.695-1.276-1.57-1.908-2.104-.384-.325-.627-.76-.995-1.116-.537-.517-1.319-1.014-1.775-1.572-.727-.889-1.816-1.576-2.814-2.104-.778-.412-1.443-.748-.127-.748 1.553 0 3.096.546 4.59.862 3.379.717 6.636.684 10.064.856.98.049 1.965.25 2.954.31 1.694.104 3.412.026 5.108.026h5.78c2.212 0 4.44.077 6.65-.007 1.978-.074 3.936-.221 5.92-.221 1.512 0 3.166.09 4.633.456" stroke="#fff" stroke-width="3" stroke-linecap="round"/><path d="M51.676 6.248c-.125.417-.895.8-1.248.995-.765.421-1.546.785-2.263 1.287-1.026.718-2.015 1.711-2.871 2.624-1.18 1.26-2.21 2.65-3.353 3.942-.475.537-.975 1.048-1.445 1.591-.475.55-1.155 1.034-1.534 1.654-.548.897-1.458 1.415-2.168 2.162-.714.752-1.505 1.502-2.37 2.085-1.291.87-2.427 1.731-3.904 2.313-.462.182-1.244.702-1.712.235-.52-.52-1.09-1.368-1.09-2.117 0-1.037.977-1.315 1.838-1.547 1.42-.382 2.762-.81 4.209-1.052.447-.075.956-.134 1.375-.317.582-.255.796-.441.165.228-1.316 1.396-3.75 2.854-5.736 2.916-.424.013-.005-1.653.089-1.933.199-.597 1.05-3.492-.564-2.282-.476.357-.691.726-.691 1.3 0 .444-.21-.13-.342-.305-.387-.511-.73-1.051-1.141-1.546a30.98 30.98 0 0 1-1.718-2.263 27.334 27.334 0 0 0-.856-1.16c-.023-.03-.206-.354-.215-.323-.088.291.101.744.177 1.014.234.832.44 1.655.609 2.504.274 1.384.565 3.044 1.293 4.284.165.282 1.092 1.233 1.255.456.417-1.992-1.698-3.426-3.005-4.538-1.386-1.18-3.042-1.967-4.183-3.422a23.205 23.205 0 0 0-1.755-1.997c-.228-.228-.521-.375-.73-.627-.07-.085.228-.054.33-.013.962.389 1.87.922 2.814 1.35 2.834 1.282 6.243 1.073 9.267.856 2.002-.145 4.012-.71 6.021-.71.548 0 3.135-.368 3.334.304.64 2.159-2.86 2.537-4.164 2.656-2.17.197-4.424.253-6.56-.222-.752-.167-3-.404-2.244-.545 2.047-.381 4.233-.368 6.313-.368.857 0 2 .173 2.801-.228" stroke="#fff" stroke-width="3" stroke-linecap="round"/><path d="M36.617 15.489c1.205 0 2.28-1.139 3.08-1.94.813-.813 1.328-1.792 2.396-2.325.163-.082.685-.488.685-.127 0 .45.064.222.317.424.083.067.497.203.481-.025-.01-.155-1.794.213-1.946.222-1.832.108-3.627.234-5.47.234-.606 0-1.32-.099-1.9.064-1.51.422-2.992.958-4.526 1.3-2.311.513-4.648.462-6.998.462-.84 0-1.702-.199-2.497-.482-.845-.301-1.818-.371-2.624-.723-.674-.293-1.305-.59-1.527-1.369-.127-.442 2.725-.276 2.953-.272 1.388.026 2.761.192 4.145.272 1.706.1 3.413.024 5.115.178 3.924.355 7.946.114 11.884.114 1.74 0 4.091-.203 5.622-1.154.328-.203 1.104-.514 1.186-.963.12-.66-.735-.725-1.224-.735-3.035-.063-6.013.342-9.044.342h-23.04c-.239 0-.937-.064-.367.14.695.248 1.412.476 2.155.545 3.233.3 6.659.931 9.887.228.799-.174 1.613-.087 2.422-.203.492-.07.978-.14 1.476-.14 1.251 0 2.653.151 3.822-.316.418-.168 1.212-.026 1.636-.026 1.004 0 1.974.228 2.985.228 2.402 0 4.689-.19 7.054-.545.384-.057.523-.079.786-.342.071-.07.356-.095.266-.14-.152-.076-.526 0-.697 0-1.549 0-3.09.229-4.646.229-.771 0-1.46-.155-2.193-.4-1.034-.344-2.145-.407-3.226-.399-4.671.034-9.352.684-14.026.564-1.395-.035-2.81-.266-4.183-.5-.886-.152-1.833.096-2.7-.12-.64-.16-1.811.115-2.301-.375-.147-.147-.893-.81-.862-.805.34.049.68.364 1.001.495.324.131.662.254.976.405.482.231.917.51 1.42.678" stroke="#fff" stroke-width="3" stroke-linecap="round"/><path d="M58 1H1" stroke="#fff"/><path d="M52.76 4.866c.063-.016.078-.17.116-.218.09-.116.229-.22.346-.308.187-.14.027.036-.047.096-.052.043-.031-.095-.031-.133" stroke="#fff" stroke-width="3" stroke-linecap="round"/><path d="M49.713 3.663c-.021-.054-.107-.064-.154-.072-.39-.063-.806-.023-1.196.017-.61.063-1.21.186-1.816.268-.164.022-.193.003-.026-.05.62-.195 1.308-.25 1.949-.331a5.386 5.386 0 0 1 .387-.034c.046 0 .038.003-.002.014-.222.06-.45.105-.672.165-.394.105-.788.21-1.187.296-.102.022-.412.068-.308.057.9-.1 1.782-.151 2.69-.151.229 0 .51-.038.739.014.098.022-.076.087-.082.088-.488.12-1.004.162-1.5.24-.424.068-.849.125-1.274.184-.104.014-.094.013.006.011.36-.005.72-.037 1.08-.05l.436-.012c.04-.001.081-.005.122-.003.054.002.033.017 0 .037-.436.267-.876.501-1.283.816a9.198 9.198 0 0 0-1.142 1.036c-.236.257-.47.556-.564.899-.042.152-.043.324.073.443.134.138.284-.04.39-.128.249-.202.492-.411.76-.588.111-.074.242-.15.36-.214.062-.033.21-.142.196-.074-.05.227-.316.505-.457.68-.217.27-.46.52-.695.774-.043.046-.065.07-.105.108l.024-.019c.176-.12.361-.23.543-.342.143-.088 1.036-.638.993-.726" stroke="#fff" stroke-linecap="round"/><path d="M56.472 1.666c-1.678 0-3.343.418-4.992.667-.119.017-.238.028-.356.044-.064.008-.034.005.011 0 .978-.121 1.943-.326 2.925-.427.835-.086 1.684-.156 2.524-.156.05 0 .17-.014.051.035-.289.122-.589.219-.883.329-.672.25-1.335.526-2 .796-.332.136-.69.26-1.002.441-.074.042.17.006.253-.008.417-.073.834-.148 1.249-.234.426-.088.848-.17 1.281-.213.147-.014.296-.045.031-.003-.549.088-1.066.312-1.574.528-.77.326-1.523.603-2.326.835-.35.101-.718.16-1.064.279-.17.057-.334.221-.492.31-.23.128-.461.262-.705.364-.07.029-.305.124-.137-.032.482-.445.947-.925 1.457-1.337.304-.245.626-.469.957-.677.254-.159.52-.33.808-.42.033-.011.132-.034.104-.013-.132.096-.287.17-.427.254-.577.344-1.167.655-1.78.928a3.33 3.33 0 0 1-.308.122c-.043.01.072-.052.111-.071.383-.193.777-.366 1.172-.532.766-.323 1.534-.638 2.297-.967.159-.069-.048.048-.068.052-.162.036-.365 0-.53.003-.488.01-.973.084-1.461.111-.624.034-1.245-.035-1.868-.013-1.081.04-2.15.243-3.194.52-.182.049-.367.09-.547.143-.156.047.32-.074.481-.102 1.562-.273 3.15-.435 4.728-.58.32-.03.637-.05.959-.053.136-.002.537-.026.408.017-.911.303-1.854.52-2.775.79-.43.124-1.726.47-1.296.349.745-.21 1.487-.433 2.227-.66.235-.072.471-.142.702-.225.202-.072.04-.067-.072-.068a24.928 24.928 0 0 0-.859.006c-.33.008-.192.007-.517.02-.1.004-.21.04-.302-.003-.011-.005.003-.028.013-.036.077-.059.3-.134.356-.153.587-.204 1.192-.35 1.794-.5.34-.084.678-.178 1.023-.24.187-.034.383-.05.563-.115.135-.048-.206-.029-.221-.029-.511.003-1.02.023-1.528.077-1.402.149-2.8.33-4.202.487-.365.04-.73.06-1.097.075-.124.005-.227.023-.023-.007.21-.031.416-.09.623-.14.528-.125 1.062-.223 1.596-.324.352-.066.704-.138 1.058-.196.05-.008.368-.013.415-.074.025-.031-.074-.033-.114-.037-.293-.029-.593-.014-.887-.014-.901 0-1.785.08-2.683.15-.035.002-.767-.018-.79.046-.018.047.014.126.025.17.045.168.077.335.1.509.06.48.1.971.065 1.455-.024.33-.065.655-.065.987 0 .166.01.328.038.493.026.16.279-.12.34-.16.921-.603 2.112-.791 3.177-.96.97-.152 1.968-.212 2.95-.176.32.012.65.017.967.066.056.008.065.03.08.082.034.118.22.15.319.164.021.003.265-.01.241.055-.041.115-.322.19-.416.227-.048.018-.619.208-.511.004.044-.084.23-.185.239-.27.005-.049-.156-.026-.18-.026" stroke="#fff" stroke-linecap="round"/><path d="M46.36 3.893c-.319.102-.663.14-.99.192-1.206.19-2.441.19-3.659.223-.392.01-1.566.046-1.175.046.356 0 .711-.06 1.064-.097 1.064-.111 2.125-.234 3.186-.367.345-.043.69-.09 1.036-.13.795-.088-1.584.236-2.376.355-1.479.223-2.955.456-4.429.711-.573.1-1.376.242-1.965.338-.353.058-.744.144-1.107.14-.103-.001-.142-.008-.014-.064.204-.089.617-.206.784-.255a47.82 47.82 0 0 1 4.137-.981c1.116-.219 2.23-.444 3.34-.69.132-.03.266-.051.395-.092.1-.032-.209-.01-.313-.003-1.128.075-2.223.3-3.327.535-.878.187 1.767-.333 2.656-.464.683-.1 1.37-.188 2.056-.265.177-.02.326-.035.498-.048l.074-.004c.039-.003.028-.002-.021 0-.92.033-1.827.193-2.724.39-.155.033-.596.165-.473.063.18-.15.493-.198.71-.261.45-.133.905-.251 1.35-.403.087-.03.323-.083.114-.11-.746-.095-1.495-.025-2.243-.066-.228-.013.451-.07.676-.112.472-.09.948-.165 1.418-.266.095-.021.372-.08.276-.094-.423-.062-.872-.041-1.299-.039-.497.003-1.98.196-1.487.124.643-.094 1.293-.27 1.925-.42.08-.019.314-.085.232-.085-.182 0-.372.05-.553.068-.729.075-1.46.153-2.19.197-.313.018-.628.04-.942.04-.041 0-.05-.002-.006-.006.213-.02.424-.039.636-.066 1.106-.14 2.205-.353 3.316-.45.147-.012.294-.016.442-.016.19 0-.377.061-.565.097-.9.17-1.814.252-2.728.297-.763.037-1.529.086-2.292.092-.573.005-1.145.077-1.716.077-.706 0-1.428.083-2.13-.011-.3-.04-.606-.091-.91-.091h-.167c.315 0 .632.008.946-.032.33-.042.656-.087.99-.095.659-.016 1.32-.001 1.98-.001h.42c.396 0 .739.044 1.127.128.837.18 1.675.306 2.522.43.412.06.845.125 1.23.292.183.08.338.206.506.31.067.042.174.077.232.13.02.018-.053.013-.08.014-.257.006-.515.001-.772.001-1.573 0-3.138.011-4.71.103-1.34.078-5.363.274-4.02.256 1.129-.016 2.244-.247 3.372-.293a41.426 41.426 0 0 1 1.822-.04c.026 0 .463-.037.268.11-.313.237-.802.338-1.162.449-.933.287-1.88.545-2.83.772-.834.2-1.683.402-2.535.51-.006 0-.492.084-.514-.01-.024-.104.312-.22.356-.238.599-.241 1.258-.357 1.887-.482.755-.15 1.513-.28 2.273-.396.091-.014.547-.142.653-.064.03.022-.066.033-.102.04a6.52 6.52 0 0 1-.45.057c-.559.057-1.115.112-1.672.186-.412.055-.826.123-1.244.116-.278-.006.088-.17.156-.197.417-.17.87-.251 1.31-.344a93.12 93.12 0 0 1 3.029-.586c.389-.069.778-.134 1.162-.226.046-.011-.228-.024-.23-.024-.903-.032-1.8.08-2.693.213-.609.09-1.204.166-1.82.127-.38-.025-.791.046-1.164-.019-.036-.006-.02-.027-.04-.045-.043-.04-.13-.026-.182-.026-.103 0-.41.019-.31-.006.67-.163 1.333-.315 1.991-.529.16-.052.33-.123.501-.13.166-.008.332.002.498-.015.114-.011.435-.085.106-.057-.735.064-1.466.228-2.197.33-.065.01-.586.069-.575.074" stroke="#fff" stroke-linecap="round"/><path d="M34.967 4.123c-.469.104-1.013 0-1.485-.014-1.536-.045-3.078.045-4.611.117-.642.03-1.287.077-1.93.077-.162 0 .321-.028.482-.045.626-.065 1.25-.144 1.877-.209 1.93-.199 3.88-.324 5.82-.335.457-.003-.211.025-.227.025a80.681 80.681 0 0 0-3.633.248c-2.524.222-5.042.47-7.578.47H22.5c-.268-.002-.173-.032.044-.066 1.317-.208 2.654-.338 3.977-.508 1.165-.15 2.319-.195 3.491-.195.195 0 .343-.058.534-.09.335-.06.67-.144 1.002-.217.54-.12 1.078-.19 1.625-.27.274-.04.533-.089.81-.089.14 0 .26-.068.396-.076.396-.024-.794-.003-1.19.001-2.052.02-4.1.178-6.152.178-.34 0-.68-.006-1.018.02-.046.003-.18.015-.137 0 .24-.086.517-.111.764-.16a28.53 28.53 0 0 1 3.186-.459c.988-.085 1.981-.087 2.968-.17.336-.027.67-.063 1.003-.114.16-.025.333-.016.49-.05.108-.023.608-.102.645-.23.02-.07-.493-.143-.518-.143a16.3 16.3 0 0 0-1.74.077c-.322.035-.647.077-.972.077-.295 0-.576.002-.868.04-.726.093-1.494.041-2.224.037-.396-.003-.79-.026-1.186-.026h-.478a1.29 1.29 0 0 1-.205-.027c.058-.032.138-.047.202-.063.228-.054.452-.127.683-.172.614-.12 1.24-.16 1.864-.172.609-.011 1.21-.049 1.816-.11.127-.012.265-.007.389-.033.037-.008.117-.032.017-.036a7.103 7.103 0 0 0-.761.01c-1.43.097-2.863.193-4.298.193-.608 0-1.207.02-1.812.05-.242.013-.481-.003-.723.022-.079.008-.266-.003-.313.082-.055.099.15.25.212.285.569.316 1.343.31 1.974.34.46.02.947-.013 1.401.072.191.036-.374.116-.567.135-.533.053-1.052.166-1.589.166-.192 0-.485-.155-.145-.267.337-.11.974-.13 1.155.248.117.243.085.765-.213.857-.183.056-.4.034-.588.032-.149-.003-.315.008-.45-.064-.212-.114-.102-.406.013-.555.014-.018.3-.312.325-.258.057.13-.235.369-.305.443" stroke="#fff" stroke-linecap="round"/><path d="M24.29 3.483h-1.25c-1.594 0-3.182.093-4.774.124-.258.005-.517.004-.775.004h.553c1.54.005 3.079.077 4.62.077h.958-.7c-1.12 0-2.215.196-3.33.268-.42.026-1.679.065-1.26.09.317.017.642 0 .958-.017.726-.036 1.448-.078 2.175-.083.358-.003.723-.017 1.08.012.19.016.115.037-.015.037a16.98 16.98 0 0 0-1.83.093c-.683.077-1.36.156-2.047.178-1.196.037-2.372-.134-3.561-.192-.487-.024-.972-.044-1.457-.087-.034-.003-.357-.016-.311-.019 1.616-.083 3.233-.195 4.848-.3 1.514-.098 3.028-.227 4.543-.293.414-.018.83-.027 1.243 0 .17.011.157.032.014.032-.107 0-.193.005-.284.07-.064.047-.063.09-.075.164-.044.26-.013.545-.013.807 0 .122.019.255-.02.372-.068.205-.034-.12-.037-.19a4.999 4.999 0 0 1 .07-1.174c.038-.2.113-.383.167-.573.048-.166.994-.093.994-.053 0 .03-3.175.162-3.362.173-1.014.054-2.02.211-3.035.25-.957.036-1.911.064-2.864.16-.873.087-1.72.286-2.596.35-.378.028-.813.078-1.192.012-.415-.072-.007-.207.185-.265 1.61-.48 3.297-.196 4.93-.45.841-.132 1.705-.041 2.552-.08.425-.02.845-.087 1.27-.105.248-.012.498 0 .747-.009.423-.015.81-.112 1.218-.202.198-.044.436-.076.603-.199.096-.07.185-.281.017-.307-.39-.06-.833.015-1.22.047-1.09.09-2.173.158-3.266.189-1.012.029-2.018.132-3.03.162-.817.025-1.639.027-2.454.082-.5.034-.996.09-1.497.116a8.606 8.606 0 0 1-.458.012c-.006 0-.139-.004-.128-.014.018-.015.09-.027.093-.028.177-.04.354-.076.53-.117.72-.168 1.444-.311 2.175-.422a48.405 48.405 0 0 1 3.894-.438c.813-.057 1.62-.14 2.431-.21.531-.045 1.077-.12 1.61-.127.4-.005.801 0 1.202 0h.26c.154 0-.302.051-.452.085-.232.052-.493.02-.728.036-.518.035-1.029.117-1.548.14-1.654.074-3.312.046-4.966.046H13.97c-.2 0-.402.01-.6-.014-.459-.057-.922-.037-1.383-.037-.057 0-.36-.043-.37.045-.016.152.089.33.128.475.049.18.083.52-.025.683" stroke="#fff" stroke-linecap="round"/><path d="M11.618 2.946c-.393.046-.75.102-1.15.102H7.467c-1.456 0 2.912-.003 4.365-.082.252-.014 1.009-.046.756-.046-.467 0-.933-.056-1.4-.071-.465-.015-.933-.012-1.399-.037-.018 0-.213.004-.225-.048-.01-.05.168-.12.194-.131.533-.232 1.121-.338 1.677-.505.144-.044.027-.087-.059-.115-.258-.087-.53-.086-.802-.091-.073-.002-.145-.022-.219-.026-.042-.002.196-.058.23-.063.108-.013.378.026.464-.045.016-.013-.037-.017-.057-.019-.13-.007-.262-.002-.392 0-1.798.038-3.597.076-5.396.076H3.528c-.21 0-.42-.051-.636-.051-.04 0-.084.003-.125-.003a.558.558 0 0 1-.16-.054c-.006-.003-.155-.088-.157-.069-.011.153.227.365.327.446.171.137.342.208.54.288.17.069.338.118.523.107.207-.012.413-.078.618-.107.363-.05.725-.107 1.09-.133 1.174-.086 2.364-.04 3.541-.04.095 0 .255-.032.3.088.035.1-.24.134-.285.148-.473.147-.897.258-1.398.272-.52.014-1.04.004-1.56.004-.47 0-.947.022-1.417-.006-.206-.012-.447-.054-.652-.008-.18.04-.217.233-.24.398-.042.293.622.051.74.051" stroke="#fff" stroke-linecap="round"/></svg>