<svg width="52" height="37" viewBox="0 0 52 37" fill="none" xmlns="http://www.w3.org/2000/svg">
<mask id="path-1-inside-1_706_2109" fill="white">
<path d="M0.449554 10.2244C3.89562 6.93915 7.95502 4.36486 12.396 2.64848C16.8369 0.932097 21.5724 0.107229 26.3322 0.220975C31.0919 0.334721 35.7826 1.38485 40.1365 3.31141C44.4904 5.23797 48.4222 8.00323 51.7074 11.4493L25.466 36.4658L0.449554 10.2244Z"/>
</mask>
<path d="M0.449554 10.2244C3.89562 6.93915 7.95502 4.36486 12.396 2.64848C16.8369 0.932097 21.5724 0.107229 26.3322 0.220975C31.0919 0.334721 35.7826 1.38485 40.1365 3.31141C44.4904 5.23797 48.4222 8.00323 51.7074 11.4493L25.466 36.4658L0.449554 10.2244Z" stroke="white" stroke-opacity="0.35" stroke-width="6" mask="url(#path-1-inside-1_706_2109)"/>
</svg>
