<svg width="32" height="31" viewBox="0 0 32 31" fill="none" xmlns="http://www.w3.org/2000/svg">
<path d="M31.1155 15.5577C31.1155 6.96452 24.151 0 15.5577 0C6.96452 0 0 6.96452 0 15.5577C0 22.8504 5.02588 28.9763 11.802 30.6597V20.3101H8.59322V15.5577H11.802V13.5097C11.802 8.21643 14.1964 5.76122 19.3985 5.76122C20.3831 5.76122 22.0847 5.95569 22.7836 6.15017V10.4529C22.4189 10.4164 21.7808 10.3921 20.9847 10.3921C18.4323 10.3921 17.4478 11.3584 17.4478 13.8683V15.5577H22.5283L21.6532 20.3101H17.4417V31C25.1476 30.0702 31.1155 23.5128 31.1155 15.5577Z" fill="white"/>
</svg>
