<svg width="165" height="138" viewBox="0 0 165 138" fill="none" xmlns="http://www.w3.org/2000/svg">
<g clip-path="url(#clip0_13_47)">
<path d="M7.11101 60.539V0.899002H81.963V48.01C81.963 73.499 77.826 91.951 69.552 103.368C58.694 118.587 41.502 130.097 17.973 137.898L0.881012 117.922C15.106 113.547 25.581 107.03 32.308 98.374C39.035 89.717 42.784 77.114 43.556 60.564L7.11101 60.539ZM103.649 0.899002C102.796 0.899002 102.039 1.316 101.569 1.956V0.899002H101.078C99.9964 0.900122 98.9382 1.21342 98.0303 1.80128C97.1225 2.38914 96.4036 3.22657 95.96 4.213C95.5163 3.22676 94.7974 2.38954 93.8895 1.80186C92.9817 1.21419 91.9235 0.901036 90.842 0.900002H90.351V7H101.569V5C101.89 5.43958 102.341 5.7664 102.859 5.93363C103.377 6.10087 103.934 6.09994 104.451 5.93099C104.968 5.76203 105.419 5.43372 105.738 4.99308C106.057 4.55244 106.229 4.02209 106.228 3.478C106.227 2.79451 105.955 2.1394 105.471 1.65619C104.988 1.17298 104.333 0.900059 103.649 0.899002ZM103.649 26.062C102.796 26.062 102.039 26.479 101.569 27.119V26.062H101.078C99.9964 26.0631 98.9382 26.3764 98.0303 26.9643C97.1225 27.5521 96.4036 28.3896 95.96 29.376C95.5165 28.3896 94.7976 27.5521 93.8897 26.9643C92.9818 26.3764 91.9236 26.0631 90.842 26.062H90.351V32.162H101.569V30.162C101.89 30.6015 102.341 30.9283 102.859 31.0956C103.376 31.2628 103.934 31.262 104.451 31.0931C104.968 30.9243 105.418 30.5962 105.738 30.1557C106.057 29.7152 106.229 29.185 106.228 28.641C106.227 27.9573 105.955 27.302 105.471 26.8185C104.988 26.3351 104.333 26.0631 103.649 26.062Z" fill="#40A2C9"/>
<path fill-rule="evenodd" clip-rule="evenodd" d="M101.569 110.997C101.89 110.558 102.341 110.232 102.859 110.065C103.376 109.898 103.934 109.899 104.45 110.068C104.967 110.237 105.418 110.565 105.737 111.005C106.056 111.445 106.228 111.975 106.228 112.519C106.228 113.062 106.056 113.592 105.737 114.032C105.418 114.472 104.967 114.8 104.45 114.969C103.934 115.138 103.376 115.139 102.859 114.972C102.341 114.805 101.89 114.479 101.569 114.04V116.041H90.351V112.736L94.192 111.053C94.9581 111.625 95.5664 112.383 95.96 113.254C96.4037 112.268 97.1226 111.43 98.0304 110.842C98.9383 110.255 99.9965 109.941 101.078 109.94H101.569V110.997Z" fill="#40A2C9"/>
<path d="M103.649 51.226C102.796 51.226 102.039 51.642 101.569 52.283V51.226H101.078C99.9964 51.2271 98.9382 51.5404 98.0303 52.1283C97.1225 52.7161 96.4036 53.5536 95.96 54.54C95.5165 53.5536 94.7976 52.7161 93.8897 52.1283C92.9818 51.5404 91.9236 51.2271 90.842 51.226H90.351V57.326H101.569V55.326C101.89 55.7656 102.341 56.0924 102.859 56.2596C103.377 56.4269 103.934 56.4259 104.451 56.257C104.968 56.088 105.419 55.7597 105.738 55.3191C106.057 54.8784 106.229 54.3481 106.228 53.804C106.227 53.1205 105.955 52.4654 105.471 51.9822C104.988 51.499 104.333 51.2271 103.649 51.226Z" fill="#40A2C9"/>
<path fill-rule="evenodd" clip-rule="evenodd" d="M106.224 103.987L102.634 106.501C103.026 106.668 103.454 106.736 103.879 106.698C104.303 106.659 104.712 106.517 105.068 106.282C105.424 106.047 105.716 105.728 105.919 105.352C106.121 104.977 106.227 104.557 106.228 104.131C106.228 104.083 106.226 104.035 106.224 103.987ZM101.569 107.172L100.743 107.653H101.569V107.172Z" fill="#40A2C9"/>
<path d="M103.649 9.287C102.796 9.287 102.039 9.703 101.569 10.344V9.287H101.078C99.9966 9.28804 98.9384 9.60119 98.0305 10.1889C97.1227 10.7765 96.4037 11.6138 95.96 12.6C95.5165 11.6136 94.7976 10.7761 93.8897 10.1883C92.9818 9.60042 91.9236 9.28712 90.842 9.286H90.351V15.386H101.569V13.386C101.89 13.8256 102.341 14.1524 102.859 14.3196C103.377 14.4869 103.934 14.4859 104.451 14.317C104.968 14.148 105.419 13.8197 105.738 13.3791C106.057 12.9384 106.229 12.4081 106.228 11.864C106.227 11.1805 105.955 10.5254 105.471 10.0422C104.988 9.55898 104.333 9.28806 103.649 9.287ZM103.649 34.45C102.796 34.45 102.039 34.867 101.569 35.507V34.45H101.078C99.9964 34.4511 98.9382 34.7644 98.0303 35.3523C97.1225 35.9401 96.4036 36.7776 95.96 37.764C95.5165 36.7776 94.7976 35.9401 93.8897 35.3523C92.9818 34.7644 91.9236 34.4511 90.842 34.45H90.351V40.55H101.569V38.55C101.89 38.9895 102.341 39.3163 102.859 39.4836C103.376 39.6508 103.934 39.65 104.451 39.4811C104.968 39.3123 105.418 38.9842 105.738 38.5437C106.057 38.1032 106.229 37.573 106.228 37.029C106.227 36.3453 105.955 35.69 105.471 35.2065C104.988 34.7231 104.333 34.4511 103.649 34.45Z" fill="#40A2C9"/>
<path fill-rule="evenodd" clip-rule="evenodd" d="M101.569 119.385C101.89 118.946 102.341 118.62 102.859 118.453C103.376 118.286 103.934 118.287 104.45 118.456C104.967 118.625 105.418 118.953 105.737 119.393C106.056 119.833 106.228 120.363 106.228 120.907C106.228 121.45 106.056 121.98 105.737 122.42C105.418 122.86 104.967 123.188 104.45 123.357C103.934 123.526 103.376 123.527 102.859 123.36C102.341 123.193 101.89 122.867 101.569 122.428V124.428H91.339L90.351 123.303V118.328H90.842C91.9236 118.329 92.9818 118.643 93.8896 119.23C94.7974 119.818 95.5163 120.656 95.96 121.642C96.4037 120.656 97.1226 119.818 98.0304 119.23C98.9383 118.643 99.9965 118.329 101.078 118.328H101.569V119.385Z" fill="#40A2C9"/>
<path d="M103.649 17.675C102.796 17.675 102.039 18.091 101.569 18.732V17.675H101.078C99.9964 17.6761 98.9382 17.9894 98.0303 18.5773C97.1225 19.1651 96.4036 20.0026 95.96 20.989C95.5165 20.0026 94.7976 19.1651 93.8897 18.5773C92.9818 17.9894 91.9236 17.6761 90.842 17.675H90.351V23.775H101.569V21.775C101.89 22.2146 102.341 22.5414 102.859 22.7086C103.377 22.8759 103.934 22.8749 104.451 22.706C104.968 22.537 105.419 22.2087 105.738 21.7681C106.057 21.3274 106.229 20.7971 106.228 20.253C106.227 19.5695 105.955 18.9144 105.471 18.4312C104.988 17.948 104.333 17.6761 103.649 17.675ZM103.649 42.838C102.796 42.838 102.039 43.255 101.569 43.895V42.838H101.078C99.9964 42.8391 98.9382 43.1524 98.0303 43.7403C97.1225 44.3281 96.4036 45.1656 95.96 46.152C95.5165 45.1656 94.7976 44.3281 93.8897 43.7403C92.9818 43.1524 91.9236 42.8391 90.842 42.838H90.351V48.938H101.569V46.938C101.89 47.3776 102.341 47.7044 102.859 47.8716C103.377 48.0389 103.934 48.0379 104.451 47.869C104.968 47.7 105.419 47.3717 105.738 46.9311C106.057 46.4904 106.229 45.9601 106.228 45.416C106.227 44.7325 105.955 44.0774 105.471 43.5942C104.988 43.111 104.333 42.8391 103.649 42.838Z" fill="#40A2C9"/>
<path fill-rule="evenodd" clip-rule="evenodd" d="M103.649 126.716C102.796 126.716 102.039 127.132 101.569 127.773V126.716H101.078C100.017 126.717 98.9773 127.019 98.0804 127.586C97.1834 128.153 96.4656 128.963 96.01 129.922L98.466 132.816H101.569V130.816C101.829 131.172 102.176 131.455 102.577 131.638C102.978 131.822 103.419 131.899 103.858 131.864C104.298 131.828 104.721 131.68 105.087 131.434C105.453 131.189 105.749 130.853 105.949 130.46C106.148 130.067 106.244 129.63 106.226 129.189C106.208 128.749 106.077 128.32 105.846 127.945C105.616 127.569 105.293 127.259 104.908 127.044C104.523 126.829 104.09 126.716 103.649 126.716Z" fill="#40A2C9"/>
<path d="M123.495 0.899002C122.642 0.899002 121.885 1.316 121.415 1.956V0.899002H120.924C119.842 0.900247 118.784 1.2136 117.876 1.80144C116.969 2.38929 116.25 3.22664 115.806 4.213C115.363 3.22649 114.644 2.389 113.736 1.80112C112.828 1.21325 111.77 0.899998 110.688 0.899002H110.197V6.999H121.415V5C121.736 5.43958 122.187 5.7664 122.705 5.93363C123.223 6.10087 123.78 6.09994 124.297 5.93099C124.814 5.76203 125.265 5.43372 125.584 4.99308C125.903 4.55244 126.075 4.02209 126.074 3.478C126.073 2.79443 125.801 2.13916 125.317 1.6559C124.834 1.17263 124.179 0.899795 123.495 0.899002ZM123.495 26.062C122.642 26.062 121.885 26.479 121.415 27.119V26.062H120.924C119.842 26.0632 118.784 26.3766 117.876 26.9644C116.969 27.5523 116.25 28.3896 115.806 29.376C115.363 28.3895 114.644 27.552 113.736 26.9641C112.828 26.3762 111.77 26.063 110.688 26.062H110.197V32.162H121.415V30.162C121.736 30.6015 122.187 30.9283 122.705 31.0956C123.222 31.2628 123.78 31.262 124.297 31.0931C124.814 30.9243 125.264 30.5962 125.584 30.1557C125.903 29.7152 126.075 29.185 126.074 28.641C126.073 27.9573 125.801 27.3017 125.318 26.8183C124.834 26.3348 124.179 26.0628 123.495 26.062ZM123.495 109.94C122.642 109.94 121.885 110.357 121.415 110.997V109.94H120.924C119.843 109.941 118.784 110.255 117.877 110.843C116.969 111.43 116.25 112.268 115.806 113.254C115.363 112.267 114.644 111.43 113.736 110.842C112.828 110.254 111.77 109.941 110.688 109.94H110.197V116.041H121.415V114.04C121.654 114.367 121.967 114.634 122.328 114.818C122.69 115.001 123.09 115.097 123.495 115.097C124.179 115.096 124.834 114.825 125.318 114.341C125.801 113.858 126.073 113.203 126.074 112.519C126.073 111.835 125.801 111.18 125.318 110.696C124.834 110.213 124.179 109.941 123.495 109.94ZM123.495 51.226C122.642 51.226 121.885 51.642 121.415 52.283V51.226H120.924C119.842 51.2273 118.784 51.5406 117.876 52.1284C116.969 52.7163 116.25 53.5536 115.806 54.54C115.363 53.5535 114.644 52.716 113.736 52.1281C112.828 51.5402 111.77 51.227 110.688 51.226H110.197V57.326H121.415V55.326C121.736 55.7656 122.187 56.0924 122.705 56.2596C123.223 56.4269 123.78 56.4259 124.297 56.257C124.814 56.088 125.265 55.7597 125.584 55.3191C125.903 54.8784 126.075 54.3481 126.074 53.804C126.073 53.1204 125.801 52.4652 125.317 51.9819C124.834 51.4986 124.179 51.2268 123.495 51.226Z" fill="#40A2C9"/>
<path fill-rule="evenodd" clip-rule="evenodd" d="M125 68.487L124.296 73.031C124.749 72.8834 125.152 72.6132 125.461 72.2503C125.769 71.8874 125.971 71.4461 126.044 70.9753C126.117 70.5046 126.058 70.0228 125.874 69.5835C125.69 69.1443 125.387 68.7647 125 68.487ZM123.495 76.389L122.162 81.174C122.553 81.4095 123 81.5369 123.456 81.5434C123.913 81.5499 124.363 81.4351 124.761 81.2109C125.158 80.9866 125.49 80.6608 125.72 80.2668C125.951 79.8728 126.073 79.4246 126.074 78.968C126.073 78.2843 125.801 77.6287 125.318 77.1452C124.834 76.6618 124.179 76.3898 123.495 76.389ZM121.415 94.222C121.736 93.7825 122.187 93.4557 122.705 93.2884C123.222 93.1212 123.78 93.122 124.297 93.2909C124.814 93.4597 125.264 93.7878 125.584 94.2283C125.903 94.6688 126.074 95.199 126.074 95.743C126.074 96.287 125.903 96.8172 125.584 97.2577C125.264 97.6982 124.814 98.0263 124.297 98.1951C123.78 98.364 123.222 98.3648 122.705 98.1976C122.187 98.0303 121.736 97.7035 121.415 97.264V99.265H111.543L115.059 95.261C115.357 95.631 115.609 96.041 115.806 96.479C116.25 95.4926 116.969 94.6553 117.876 94.0674C118.784 93.4796 119.842 93.1662 120.924 93.165H121.415V94.222ZM121.141 85.834C121.461 85.3936 121.912 85.066 122.43 84.8982C122.948 84.7304 123.506 84.7311 124.023 84.9C124.541 85.069 124.991 85.3976 125.31 85.8387C125.629 86.2798 125.8 86.8106 125.799 87.355C125.798 88.0387 125.527 88.6942 125.043 89.1777C124.56 89.6612 123.905 89.9332 123.221 89.934C122.816 89.934 122.416 89.8383 122.054 89.6546C121.693 89.4709 121.38 89.2045 121.141 88.877V90.877H117.934L120.895 84.777H121.141V85.834Z" fill="#40A2C9"/>
<path d="M123.221 101.552C122.368 101.552 121.61 101.969 121.141 102.609V101.552H120.65C119.568 101.553 118.51 101.866 117.602 102.455C116.694 103.043 115.975 103.88 115.532 104.867C115.088 103.88 114.37 103.043 113.462 102.455C112.554 101.867 111.496 101.553 110.414 101.552H109.922V107.653H121.141V105.652C121.38 105.98 121.693 106.246 122.054 106.43C122.416 106.614 122.816 106.709 123.221 106.709C123.905 106.708 124.56 106.437 125.043 105.953C125.527 105.47 125.798 104.815 125.799 104.131C125.798 103.447 125.526 102.792 125.043 102.309C124.56 101.825 123.905 101.553 123.221 101.552ZM123.495 9.287C122.642 9.287 121.885 9.703 121.415 10.344V9.287H120.924C119.842 9.28825 118.784 9.6016 117.876 10.1894C116.969 10.7773 116.25 11.6146 115.806 12.601C115.363 11.6145 114.644 10.777 113.736 10.1891C112.828 9.60125 111.77 9.288 110.688 9.287H110.197V15.387H121.415V13.387C121.736 13.8266 122.187 14.1534 122.705 14.3206C123.223 14.4879 123.78 14.4869 124.297 14.318C124.814 14.149 125.265 13.8207 125.584 13.3801C125.903 12.9394 126.075 12.4091 126.074 11.865C126.073 11.1814 125.801 10.5262 125.317 10.0429C124.834 9.55963 124.179 9.2878 123.495 9.287ZM123.495 34.45C122.642 34.45 121.885 34.867 121.415 35.507V34.45H120.924C119.842 34.4512 118.784 34.7646 117.876 35.3524C116.969 35.9403 116.25 36.7776 115.806 37.764C115.363 36.7775 114.644 35.94 113.736 35.3521C112.828 34.7642 111.77 34.451 110.688 34.45H110.197V40.55H121.415V38.55C121.736 38.9895 122.187 39.3163 122.705 39.4836C123.222 39.6508 123.78 39.65 124.297 39.4811C124.814 39.3123 125.264 38.9842 125.584 38.5437C125.903 38.1032 126.075 37.573 126.074 37.029C126.073 36.3453 125.801 35.6897 125.318 35.2063C124.834 34.7228 124.179 34.4508 123.495 34.45ZM123.495 118.328C122.642 118.328 121.885 118.745 121.415 119.385V118.328H120.924C119.842 118.329 118.784 118.643 117.877 119.231C116.969 119.818 116.25 120.656 115.806 121.642C115.363 120.655 114.644 119.818 113.736 119.23C112.828 118.642 111.77 118.329 110.688 118.328H110.197V124.428H121.415V122.428C121.675 122.784 122.022 123.067 122.423 123.25C122.824 123.434 123.265 123.511 123.704 123.476C124.144 123.44 124.567 123.292 124.933 123.046C125.299 122.801 125.595 122.465 125.795 122.072C125.994 121.679 126.09 121.242 126.072 120.801C126.054 120.361 125.923 119.932 125.692 119.557C125.462 119.181 125.139 118.871 124.754 118.656C124.369 118.441 123.936 118.328 123.495 118.328ZM123.495 17.675C122.642 17.675 121.885 18.091 121.415 18.732V17.675H120.924C119.842 17.6762 118.784 17.9896 117.876 18.5774C116.969 19.1653 116.25 20.0026 115.806 20.989C115.363 20.0025 114.644 19.165 113.736 18.5771C112.828 17.9893 111.77 17.676 110.688 17.675H110.197V23.775H121.415V21.775C121.736 22.2146 122.187 22.5414 122.705 22.7086C123.223 22.8759 123.78 22.8749 124.297 22.706C124.814 22.537 125.265 22.2087 125.584 21.7681C125.903 21.3274 126.075 20.7971 126.074 20.253C126.073 19.5694 125.801 18.9142 125.317 18.4309C124.834 17.9476 124.179 17.6758 123.495 17.675ZM123.495 42.838C122.642 42.838 121.885 43.255 121.415 43.895V42.838H120.924C119.842 42.8392 118.784 43.1526 117.876 43.7404C116.969 44.3283 116.25 45.1656 115.806 46.152C115.363 45.1655 114.644 44.328 113.736 43.7401C112.828 43.1522 111.77 42.839 110.688 42.838H110.197V48.938H121.415V46.938C121.736 47.3776 122.187 47.7044 122.705 47.8716C123.223 48.0389 123.78 48.0379 124.297 47.869C124.814 47.7 125.265 47.3717 125.584 46.9311C125.903 46.4904 126.075 45.9601 126.074 45.416C126.073 44.7324 125.801 44.0772 125.317 43.5939C124.834 43.1106 124.179 42.8388 123.495 42.838Z" fill="#40A2C9"/>
<path fill-rule="evenodd" clip-rule="evenodd" d="M110.197 131.515L115.403 129.29C114.895 128.501 114.198 127.851 113.374 127.402C112.55 126.952 111.627 126.716 110.688 126.716H110.197V131.515ZM120.351 126.745L116.693 128.647C117.626 127.571 118.934 126.891 120.351 126.745Z" fill="#40A2C9"/>
<path d="M143.341 0.899002C142.488 0.899002 141.731 1.316 141.261 1.956V0.899002H140.77C139.688 0.900247 138.63 1.2136 137.722 1.80144C136.815 2.38929 136.096 3.22664 135.652 4.213C135.209 3.22649 134.49 2.389 133.582 1.80112C132.674 1.21325 131.616 0.899998 130.534 0.899002H130.043V6.999H141.261V5C141.582 5.43958 142.033 5.7664 142.551 5.93363C143.069 6.10087 143.626 6.09994 144.143 5.93099C144.66 5.76203 145.111 5.43372 145.43 4.99308C145.749 4.55244 145.921 4.02209 145.92 3.478C145.919 2.79443 145.647 2.13916 145.163 1.6559C144.68 1.17263 144.025 0.899795 143.341 0.899002ZM143.341 26.062C142.488 26.062 141.731 26.479 141.261 27.119V26.062H140.77C139.688 26.0632 138.63 26.3766 137.722 26.9644C136.815 27.5523 136.096 28.3896 135.652 29.376C135.209 28.3895 134.49 27.552 133.582 26.9641C132.674 26.3762 131.616 26.063 130.534 26.062H130.043V32.162H141.261V30.162C141.582 30.6015 142.033 30.9283 142.551 31.0956C143.068 31.2628 143.626 31.262 144.143 31.0931C144.66 30.9243 145.11 30.5962 145.43 30.1557C145.749 29.7152 145.92 29.185 145.92 28.641C145.919 27.9573 145.647 27.3017 145.164 26.8183C144.68 26.3348 144.025 26.0628 143.341 26.062Z" fill="#40A2C9"/>
<path fill-rule="evenodd" clip-rule="evenodd" d="M141.261 110.997C141.571 110.573 142.003 110.254 142.499 110.082C142.995 109.911 143.531 109.894 144.037 110.036L137.249 116.041H130.043V109.94H130.534C131.616 109.941 132.674 110.254 133.582 110.842C134.49 111.43 135.209 112.267 135.652 113.254C136.096 112.268 136.815 111.43 137.722 110.843C138.63 110.255 139.688 109.941 140.77 109.94H141.261V110.997Z" fill="#40A2C9"/>
<path d="M143.341 51.226C142.488 51.226 141.731 51.642 141.261 52.283V51.226H140.77C139.688 51.2273 138.63 51.5406 137.722 52.1284C136.815 52.7163 136.096 53.5536 135.652 54.54C135.209 53.5535 134.49 52.716 133.582 52.1281C132.674 51.5402 131.616 51.227 130.534 51.226H130.043V57.326H141.261V55.326C141.582 55.7656 142.033 56.0924 142.551 56.2596C143.069 56.4269 143.626 56.4259 144.143 56.257C144.66 56.088 145.111 55.7597 145.43 55.3191C145.749 54.8784 145.921 54.3481 145.92 53.804C145.919 53.1204 145.647 52.4652 145.163 51.9819C144.68 51.4986 144.025 51.2268 143.341 51.226ZM143.341 76.389C142.488 76.389 141.731 76.806 141.261 77.446V76.39H140.77C139.688 76.3912 138.63 76.7046 137.722 77.2924C136.815 77.8803 136.096 78.7176 135.652 79.704C135.209 78.7175 134.49 77.88 133.582 77.2921C132.674 76.7042 131.616 76.391 130.534 76.39H130.043V82.49H141.261V80.49C141.582 80.9295 142.033 81.2563 142.551 81.4236C143.068 81.5908 143.626 81.59 144.143 81.4211C144.66 81.2523 145.11 80.9242 145.43 80.4837C145.749 80.0432 145.921 79.513 145.92 78.969C145.919 78.2853 145.647 77.6297 145.164 77.1462C144.68 76.6628 144.025 76.3898 143.341 76.389ZM143.341 93.165C142.488 93.165 141.731 93.581 141.261 94.222V93.165H140.77C139.688 93.1662 138.63 93.4796 137.722 94.0674C136.815 94.6553 136.096 95.4926 135.652 96.479C135.209 95.4925 134.49 94.655 133.582 94.0671C132.674 93.4792 131.616 93.166 130.534 93.165H130.043V99.265H141.261V97.265C141.582 97.7046 142.033 98.0314 142.551 98.1986C143.069 98.3659 143.626 98.3649 144.143 98.196C144.66 98.027 145.111 97.6987 145.43 97.2581C145.749 96.8174 145.921 96.2871 145.92 95.743C145.919 95.0594 145.647 94.4042 145.163 93.9209C144.68 93.4376 144.025 93.1658 143.341 93.165ZM143.067 84.777C142.214 84.777 141.456 85.193 140.987 85.834V84.777H140.495C139.414 84.7781 138.355 85.0914 137.448 85.6792C136.54 86.2671 135.821 87.1046 135.378 88.091C134.934 87.1046 134.215 86.2673 133.308 85.6794C132.4 85.0916 131.342 84.7782 130.26 84.777H129.768V90.877H140.987V88.877C141.226 89.2045 141.539 89.4709 141.9 89.6546C142.262 89.8383 142.662 89.934 143.067 89.934C143.751 89.9332 144.406 89.6612 144.889 89.1777C145.373 88.6942 145.644 88.0387 145.645 87.355C145.644 86.6716 145.372 86.0165 144.889 85.5332C144.406 85.05 143.75 84.7781 143.067 84.777ZM143.067 101.552C142.214 101.552 141.456 101.969 140.987 102.609V101.552H140.495C139.413 101.553 138.355 101.867 137.447 102.455C136.54 103.043 135.821 103.88 135.378 104.867C134.934 103.88 134.216 103.043 133.308 102.455C132.4 101.867 131.342 101.553 130.26 101.552H129.768V107.653H140.987V105.652C141.226 105.98 141.539 106.246 141.9 106.43C142.262 106.614 142.662 106.709 143.067 106.709C143.751 106.708 144.406 106.437 144.889 105.953C145.373 105.47 145.644 104.815 145.645 104.131C145.644 103.447 145.372 102.792 144.889 102.309C144.406 101.825 143.751 101.553 143.067 101.552ZM143.341 9.287C142.488 9.287 141.731 9.703 141.261 10.344V9.287H140.77C139.688 9.28825 138.63 9.6016 137.722 10.1894C136.815 10.7773 136.096 11.6146 135.652 12.601C135.209 11.6145 134.49 10.777 133.582 10.1891C132.674 9.60125 131.616 9.288 130.534 9.287H130.043V15.387H141.261V13.387C141.582 13.8266 142.033 14.1534 142.551 14.3206C143.069 14.4879 143.626 14.4869 144.143 14.318C144.66 14.149 145.111 13.8207 145.43 13.3801C145.749 12.9394 145.921 12.4091 145.92 11.865C145.919 11.1814 145.647 10.5262 145.163 10.0429C144.68 9.55963 144.025 9.2878 143.341 9.287ZM143.341 34.45C142.488 34.45 141.731 34.867 141.261 35.507V34.45H140.77C139.688 34.4512 138.63 34.7646 137.722 35.3524C136.815 35.9403 136.096 36.7776 135.652 37.764C135.209 36.7775 134.49 35.94 133.582 35.3521C132.674 34.7642 131.616 34.451 130.534 34.45H130.043V40.55H141.261V38.55C141.582 38.9895 142.033 39.3163 142.551 39.4836C143.068 39.6508 143.626 39.65 144.143 39.4811C144.66 39.3123 145.11 38.9842 145.43 38.5437C145.749 38.1032 145.921 37.573 145.92 37.029C145.919 36.3453 145.647 35.6897 145.164 35.2063C144.68 34.7228 144.025 34.4508 143.341 34.45Z" fill="#40A2C9"/>
<path fill-rule="evenodd" clip-rule="evenodd" d="M130.043 121.241L133.291 119.053C132.45 118.577 131.5 118.327 130.534 118.328H130.043V121.241Z" fill="#40A2C9"/>
<path d="M143.341 59.613C142.488 59.613 141.731 60.03 141.261 60.67V59.613H140.77C139.688 59.6143 138.63 59.9278 137.722 60.5159C136.814 61.1039 136.095 61.9415 135.652 62.928C135.209 61.9413 134.49 61.1036 133.582 60.5155C132.674 59.9275 131.616 59.6141 130.534 59.613H130.043V65.713H141.261V63.713C141.582 64.1525 142.033 64.4793 142.551 64.6466C143.068 64.8138 143.626 64.813 144.143 64.6441C144.66 64.4753 145.11 64.1472 145.43 63.7067C145.749 63.2662 145.92 62.736 145.92 62.192C145.919 61.5083 145.647 60.8527 145.164 60.3692C144.68 59.8858 144.025 59.6138 143.341 59.613Z" fill="#40A2C9"/>
<path fill-rule="evenodd" clip-rule="evenodd" d="M126.017 59.613L125.572 64.733C125.943 64.7974 126.323 64.7801 126.686 64.6821C127.049 64.5842 127.386 64.4081 127.674 64.1662C127.962 63.9242 128.194 63.6223 128.353 63.2814C128.512 62.9406 128.595 62.5691 128.595 62.193C128.594 61.5093 128.323 60.8536 127.839 60.37C127.356 59.8863 126.701 59.6141 126.017 59.613Z" fill="#40A2C9"/>
<path d="M143.341 17.675C142.488 17.675 141.731 18.091 141.261 18.732V17.675H140.77C139.688 17.6762 138.63 17.9896 137.722 18.5774C136.815 19.1653 136.096 20.0026 135.652 20.989C135.209 20.0025 134.49 19.165 133.582 18.5771C132.674 17.9892 131.616 17.676 130.534 17.675H130.043V23.775H141.261V21.775C141.582 22.2146 142.033 22.5414 142.551 22.7086C143.069 22.8759 143.626 22.8749 144.143 22.706C144.66 22.537 145.111 22.2087 145.43 21.7681C145.749 21.3274 145.921 20.7971 145.92 20.253C145.919 19.5694 145.647 18.9142 145.163 18.4309C144.68 17.9476 144.025 17.6758 143.341 17.675ZM143.341 42.838C142.488 42.838 141.731 43.255 141.261 43.895V42.838H140.77C139.688 42.8392 138.63 43.1526 137.722 43.7404C136.815 44.3283 136.096 45.1656 135.652 46.152C135.209 45.1655 134.49 44.328 133.582 43.7401C132.674 43.1522 131.616 42.839 130.534 42.838H130.043V48.938H141.261V46.938C141.582 47.3776 142.033 47.7044 142.551 47.8716C143.069 48.0389 143.626 48.0379 144.143 47.869C144.66 47.7 145.111 47.3717 145.43 46.9311C145.749 46.4904 145.921 45.9601 145.92 45.416C145.919 44.7324 145.647 44.0772 145.163 43.5939C144.68 43.1106 144.025 42.8388 143.341 42.838ZM143.341 68.001C142.488 68.001 141.731 68.418 141.261 69.058V68.001H140.77C139.688 68.0022 138.63 68.3156 137.722 68.9034C136.815 69.4913 136.096 70.3286 135.652 71.315C135.209 70.3285 134.49 69.491 133.582 68.9031C132.674 68.3152 131.616 68.002 130.534 68.001H130.043V74.101H141.261V72.101C141.582 72.5405 142.033 72.8673 142.551 73.0346C143.068 73.2018 143.626 73.201 144.143 73.0321C144.66 72.8633 145.11 72.5352 145.43 72.0947C145.749 71.6542 145.92 71.124 145.92 70.58C145.919 69.8961 145.648 69.2403 145.164 68.7566C144.681 68.2729 144.025 68.0018 143.341 68.001ZM161.864 0.899002C161.011 0.899002 160.254 1.316 159.784 1.956V0.899002H159.293C158.211 0.900247 157.153 1.2136 156.245 1.80144C155.338 2.38929 154.619 3.22664 154.175 4.213C153.731 3.22657 153.013 2.38914 152.105 1.80128C151.197 1.21342 150.139 0.900122 149.057 0.899002H148.566V6.999H159.784V5C160.105 5.43958 160.556 5.7664 161.074 5.93363C161.592 6.10087 162.149 6.09994 162.666 5.93099C163.183 5.76203 163.634 5.43372 163.953 4.99308C164.272 4.55244 164.444 4.02209 164.443 3.478C164.442 2.79443 164.17 2.13916 163.686 1.6559C163.203 1.17263 162.548 0.899795 161.864 0.899002ZM161.864 26.062C161.011 26.062 160.254 26.479 159.784 27.119V26.062H159.293C158.211 26.0632 157.153 26.3766 156.245 26.9644C155.338 27.5523 154.619 28.3896 154.175 29.376C153.731 28.3896 153.013 27.5521 152.105 26.9643C151.197 26.3764 150.139 26.0631 149.057 26.062H148.566V32.162H159.784V30.162C160.105 30.6015 160.556 30.9283 161.074 31.0956C161.591 31.2628 162.149 31.262 162.666 31.0931C163.183 30.9243 163.633 30.5962 163.953 30.1557C164.272 29.7152 164.443 29.185 164.443 28.641C164.442 27.9573 164.17 27.3017 163.687 26.8183C163.203 26.3348 162.548 26.0628 161.864 26.062ZM161.864 51.226C161.011 51.226 160.254 51.642 159.784 52.283V51.226H159.293C158.211 51.2273 157.153 51.5406 156.245 52.1284C155.338 52.7163 154.619 53.5536 154.175 54.54C153.731 53.5536 153.013 52.7161 152.105 52.1283C151.197 51.5404 150.139 51.2271 149.057 51.226H148.566V57.326H159.784V55.326C160.105 55.7656 160.556 56.0924 161.074 56.2596C161.592 56.4269 162.149 56.4259 162.666 56.257C163.183 56.088 163.634 55.7597 163.953 55.3191C164.272 54.8784 164.444 54.3481 164.443 53.804C164.442 53.1204 164.17 52.4652 163.686 51.9819C163.203 51.4986 162.548 51.2268 161.864 51.226Z" fill="#40A2C9"/>
<path fill-rule="evenodd" clip-rule="evenodd" d="M160.6 81.214L161.714 76.394C161.335 76.4163 160.965 76.5221 160.631 76.704C160.298 76.8859 160.008 77.1392 159.784 77.446V76.39H159.293C158.211 76.3912 157.153 76.7046 156.245 77.2924C155.338 77.8803 154.619 78.7176 154.175 79.704C153.731 78.7176 153.013 77.8801 152.105 77.2923C151.197 76.7044 150.139 76.3911 149.057 76.39H148.566V82.49H159.784V80.49C160.001 80.786 160.279 81.033 160.6 81.214ZM152.941 99.265L155.786 94.399C155.093 94.9556 154.541 95.6684 154.175 96.479C153.731 95.4926 153.013 94.6551 152.105 94.0673C151.197 93.4794 150.139 93.1661 149.057 93.165H148.566V99.265H152.941ZM157.387 90.877L159.509 85.037V84.777H159.018C157.936 84.7782 156.878 85.0916 155.97 85.6794C155.063 86.2673 154.344 87.1046 153.9 88.091C153.457 87.1045 152.738 86.267 151.83 85.6791C150.922 85.0912 149.864 84.778 148.782 84.777H148.291V90.877H157.387ZM148.291 105.394L150.998 102.009C150.298 101.707 149.544 101.551 148.782 101.552H148.291V105.394Z" fill="#40A2C9"/>
<path d="M161.864 9.287C161.011 9.287 160.254 9.703 159.784 10.344V9.287H159.293C158.211 9.28825 157.153 9.6016 156.245 10.1894C155.338 10.7773 154.619 11.6146 154.175 12.601C153.731 11.6146 153.013 10.7771 152.105 10.1893C151.197 9.60142 150.139 9.28812 149.057 9.287H148.566V15.387H159.784V13.387C160.105 13.8266 160.556 14.1534 161.074 14.3206C161.592 14.4879 162.149 14.4869 162.666 14.318C163.183 14.149 163.634 13.8207 163.953 13.3801C164.272 12.9394 164.444 12.4091 164.443 11.865C164.442 11.1814 164.17 10.5262 163.686 10.0429C163.203 9.55963 162.548 9.2878 161.864 9.287ZM161.864 34.45C161.011 34.45 160.254 34.867 159.784 35.507V34.45H159.293C158.211 34.4512 157.153 34.7646 156.245 35.3524C155.338 35.9403 154.619 36.7776 154.175 37.764C153.731 36.7776 153.013 35.9401 152.105 35.3523C151.197 34.7644 150.139 34.4511 149.057 34.45H148.566V40.55H159.784V38.55C160.105 38.9895 160.556 39.3163 161.074 39.4836C161.591 39.6508 162.149 39.65 162.666 39.4811C163.183 39.3123 163.633 38.9842 163.953 38.5437C164.272 38.1032 164.443 37.573 164.443 37.029C164.442 36.3453 164.17 35.6897 163.687 35.2063C163.203 34.7228 162.548 34.4508 161.864 34.45Z" fill="#40A2C9"/>
<path fill-rule="evenodd" clip-rule="evenodd" d="M159.784 60.67C160.018 60.3499 160.323 60.0881 160.675 59.9051C161.027 59.7221 161.416 59.6229 161.813 59.615C162.209 59.6072 162.603 59.691 162.961 59.8599C163.32 60.0289 163.635 60.2784 163.882 60.589L163.556 64.136C163.287 64.3702 162.972 64.546 162.631 64.6522C162.291 64.7584 161.932 64.7927 161.577 64.753C161.222 64.7132 160.88 64.6002 160.571 64.4212C160.263 64.2422 159.995 64.001 159.784 63.713V65.713H148.566V59.613H149.057C150.139 59.6142 151.197 59.9277 152.105 60.5157C153.013 61.1037 153.732 61.9414 154.175 62.928C154.619 61.9415 155.337 61.1039 156.245 60.5159C157.153 59.9278 158.211 59.6143 159.293 59.613H159.784V60.67Z" fill="#40A2C9"/>
<path d="M161.864 17.675C161.011 17.675 160.254 18.091 159.784 18.732V17.675H159.293C158.211 17.6762 157.153 17.9896 156.245 18.5774C155.338 19.1653 154.619 20.0026 154.175 20.989C153.731 20.0026 153.013 19.1651 152.105 18.5773C151.197 17.9894 150.139 17.6761 149.057 17.675H148.566V23.775H159.784V21.775C160.105 22.2146 160.556 22.5414 161.074 22.7086C161.592 22.8759 162.149 22.8749 162.666 22.706C163.183 22.537 163.634 22.2087 163.953 21.7681C164.272 21.3274 164.444 20.7971 164.443 20.253C164.442 19.5694 164.17 18.9142 163.686 18.4309C163.203 17.9476 162.548 17.6758 161.864 17.675ZM161.864 42.838C161.011 42.838 160.254 43.255 159.784 43.895V42.838H159.293C158.211 42.8392 157.153 43.1526 156.245 43.7404C155.338 44.3283 154.619 45.1656 154.175 46.152C153.731 45.1656 153.013 44.3281 152.105 43.7403C151.197 43.1524 150.139 42.8391 149.057 42.838H148.566V48.938H159.784V46.938C160.105 47.3776 160.556 47.7044 161.074 47.8716C161.592 48.0389 162.149 48.0379 162.666 47.869C163.183 47.7 163.634 47.3717 163.953 46.9311C164.272 46.4904 164.444 45.9601 164.443 45.416C164.442 44.7324 164.17 44.0772 163.686 43.5939C163.203 43.1106 162.548 42.8388 161.864 42.838Z" fill="#40A2C9"/>
<path fill-rule="evenodd" clip-rule="evenodd" d="M159.784 69.058C160.149 68.5578 160.683 68.206 161.286 68.067C161.89 67.928 162.524 68.0111 163.071 68.301L162.346 73.113C161.867 73.2032 161.372 73.1561 160.919 72.977C160.465 72.7979 160.072 72.4942 159.784 72.101V74.101H148.566V68.001H149.057C150.139 68.0021 151.197 68.3154 152.105 68.9033C153.013 69.4911 153.731 70.3286 154.175 71.315C154.619 70.3286 155.338 69.4913 156.245 68.9034C157.153 68.3156 158.211 68.0022 159.293 68.001H159.784V69.058Z" fill="#40A2C9"/>
</g>
<defs>
<clipPath id="clip0_13_47">
<rect width="165" height="138" fill="white"/>
</clipPath>
</defs>
</svg>
