<svg width="164" height="137" viewBox="0 0 164 137" fill="none" xmlns="http://www.w3.org/2000/svg">
<g clip-path="url(#clip0_13_22)">
<path d="M157.438 77.36V137.001H82.586V89.888C82.586 64.4 86.723 45.948 94.997 34.531C105.855 19.31 123.048 7.8 146.576 0L163.668 19.976C149.443 24.352 138.967 30.868 132.241 39.525C125.514 48.182 121.765 60.785 120.993 77.335L157.438 77.36ZM60.9 137C61.753 137 62.51 136.584 62.98 135.943V137H63.471C64.5526 136.999 65.6109 136.686 66.5188 136.098C67.4267 135.51 68.1455 134.673 68.589 133.686C69.0325 134.673 69.7513 135.51 70.6592 136.098C71.5671 136.686 72.6254 136.999 73.707 137H74.198V130.9H62.98V132.9C62.6597 132.46 62.2082 132.132 61.6902 131.965C61.1723 131.797 60.6146 131.798 60.0971 131.967C59.5796 132.136 59.1289 132.465 58.8099 132.906C58.4908 133.347 58.3196 133.878 58.321 134.422C58.3221 135.106 58.5941 135.761 59.0776 136.244C59.5611 136.727 60.2164 136.999 60.9 137ZM60.9 111.837C61.753 111.837 62.51 111.42 62.98 110.78V111.837H63.471C64.5526 111.836 65.6109 111.523 66.5188 110.935C67.4267 110.347 68.1455 109.51 68.589 108.523C69.0325 109.51 69.7513 110.347 70.6592 110.935C71.5671 111.523 72.6254 111.836 73.707 111.837H74.198V105.737H62.98V107.737C62.6597 107.297 62.2082 106.969 61.6902 106.802C61.1723 106.634 60.6146 106.635 60.0971 106.804C59.5796 106.973 59.1289 107.302 58.8099 107.743C58.4908 108.184 58.3196 108.715 58.321 109.259C58.3221 109.943 58.5941 110.598 59.0776 111.081C59.5611 111.564 60.2164 111.836 60.9 111.837Z" fill="#40A2C9"/>
<path fill-rule="evenodd" clip-rule="evenodd" d="M62.98 26.902C62.6598 27.3422 62.2083 27.6695 61.6905 27.8372C61.1726 28.0049 60.615 28.0042 60.0975 27.8353C59.5801 27.6663 59.1295 27.3379 58.8103 26.8969C58.4911 26.456 58.3198 25.9253 58.321 25.381C58.3215 24.6972 58.5934 24.0415 59.0769 23.558C59.5605 23.0744 60.2162 22.8025 60.9 22.802C61.753 22.802 62.51 23.219 62.98 23.859V21.859H74.198V25.163L70.357 26.846C69.5909 26.2742 68.9825 25.5172 68.589 24.646C68.1453 25.6323 67.4263 26.4695 66.5185 27.0571C65.6106 27.6448 64.5525 27.958 63.471 27.959H62.98V26.902Z" fill="#40A2C9"/>
<path d="M60.9 86.674C61.753 86.674 62.51 86.257 62.98 85.617V86.674H63.471C64.5526 86.6729 65.6108 86.3596 66.5187 85.7717C67.4265 85.1839 68.1454 84.3464 68.589 83.36C69.0325 84.3464 69.7514 85.1839 70.6593 85.7717C71.5672 86.3596 72.6254 86.6729 73.707 86.674H74.198V80.574H62.98V82.574C62.741 82.2465 62.428 81.9801 62.0666 81.7964C61.7051 81.6127 61.3054 81.517 60.9 81.517C60.2163 81.5175 59.5608 81.7893 59.0773 82.2726C58.5938 82.7559 58.3218 83.4114 58.321 84.095C58.3218 84.7788 58.5937 85.4343 59.0772 85.9178C59.5607 86.4012 60.2162 86.6732 60.9 86.674Z" fill="#40A2C9"/>
<path fill-rule="evenodd" clip-rule="evenodd" d="M58.325 33.912L61.915 31.398C61.5116 31.2259 61.071 31.1594 60.6347 31.2049C60.1985 31.2504 59.781 31.4062 59.4217 31.6578C59.0625 31.9094 58.7732 32.2484 58.5813 32.6428C58.3894 33.0372 58.3012 33.474 58.325 33.912ZM62.98 30.728L63.806 30.247H62.98V30.727V30.728Z" fill="#40A2C9"/>
<path d="M60.9 128.613C61.753 128.613 62.51 128.196 62.98 127.556V128.613H63.471C64.5525 128.612 65.6107 128.298 66.5186 127.711C67.4264 127.123 68.1453 126.285 68.589 125.299C69.0326 126.285 69.7516 127.123 70.6594 127.711C71.5672 128.298 72.6254 128.612 73.707 128.613H74.198V122.512H62.98V124.513C62.741 124.185 62.4281 123.919 62.0666 123.735C61.7052 123.552 61.3054 123.456 60.9 123.456C60.2163 123.457 59.5608 123.728 59.0773 124.212C58.5938 124.695 58.3218 125.35 58.321 126.034C58.322 126.718 58.5941 127.373 59.0775 127.856C59.561 128.34 60.2163 128.612 60.9 128.613ZM60.9 103.449C61.753 103.449 62.51 103.033 62.98 102.392V103.449H63.471C64.5526 103.448 65.6109 103.135 66.5188 102.547C67.4267 101.959 68.1455 101.122 68.589 100.135C69.0324 101.122 69.7513 101.959 70.6592 102.547C71.5671 103.135 72.6254 103.448 73.707 103.449H74.198V97.349H62.98V99.349C62.7409 99.0216 62.4279 98.7552 62.0665 98.5715C61.7051 98.3878 61.3054 98.2921 60.9 98.292C60.2162 98.2925 59.5605 98.5644 59.0769 99.048C58.5934 99.5315 58.3215 100.187 58.321 100.871C58.322 101.555 58.5941 102.21 59.0776 102.693C59.561 103.176 60.2164 103.448 60.9 103.449Z" fill="#40A2C9"/>
<path fill-rule="evenodd" clip-rule="evenodd" d="M62.98 18.515C62.7408 18.8422 62.4278 19.1084 62.0664 19.2919C61.7049 19.4754 61.3053 19.571 60.9 19.571C60.2164 19.5702 59.561 19.2984 59.0776 18.8151C58.5941 18.3318 58.322 17.6766 58.321 16.993C58.3218 16.3093 58.5938 15.6539 59.0773 15.1706C59.5608 14.6873 60.2163 14.4155 60.9 14.415C61.753 14.415 62.51 14.831 62.98 15.472V13.472H73.21L74.198 14.597V19.572H73.707C72.6253 19.5708 71.567 19.2573 70.6591 18.6693C69.7512 18.0812 69.0324 17.2436 68.589 16.257C68.1454 17.2434 67.4265 18.0808 66.5187 18.6687C65.6108 19.2566 64.5526 19.5699 63.471 19.571H62.98V18.515Z" fill="#40A2C9"/>
<path d="M60.9 120.225C61.753 120.225 62.51 119.808 62.98 119.168V120.225H63.471C64.5525 120.224 65.6107 119.91 66.5186 119.323C67.4264 118.735 68.1453 117.897 68.589 116.911C69.0327 117.897 69.7516 118.735 70.6594 119.323C71.5672 119.91 72.6254 120.224 73.707 120.225H74.198V114.124H62.98V116.125C62.6598 115.685 62.2083 115.357 61.6905 115.19C61.1726 115.022 60.615 115.023 60.0975 115.192C59.5801 115.361 59.1295 115.689 58.8103 116.13C58.4911 116.571 58.3198 117.102 58.321 117.646C58.3218 118.33 58.5938 118.985 59.0772 119.469C59.5607 119.952 60.2162 120.224 60.9 120.225ZM60.9 95.062C61.753 95.062 62.51 94.645 62.98 94.005V95.062H63.471C64.5527 95.0608 65.611 94.7474 66.5189 94.1593C67.4268 93.5713 68.1456 92.7336 68.589 91.747C69.0324 92.7336 69.7512 93.5713 70.6591 94.1593C71.567 94.7474 72.6253 95.0608 73.707 95.062H74.198V88.962H62.98V90.962C62.741 90.6345 62.428 90.3681 62.0666 90.1844C61.7051 90.0007 61.3054 89.905 60.9 89.905C60.2163 89.9055 59.5608 90.1773 59.0773 90.6606C58.5938 91.1439 58.3218 91.7994 58.321 92.483C58.3218 93.1668 58.5938 93.8223 59.0772 94.3058C59.5607 94.7892 60.2162 95.0612 60.9 95.062Z" fill="#40A2C9"/>
<path fill-rule="evenodd" clip-rule="evenodd" d="M60.9 11.184C61.753 11.184 62.51 10.767 62.98 10.127V11.184H63.471C64.5324 11.1829 65.5719 10.8811 66.4688 10.3135C67.3658 9.74593 68.0836 8.9358 68.539 7.97701L66.083 5.08301H62.98V7.08301C62.7408 6.75576 62.4278 6.48957 62.0664 6.30607C61.7049 6.12258 61.3053 6.02697 60.9 6.02701C60.2163 6.02754 59.5608 6.29928 59.0773 6.78261C58.5938 7.26594 58.3218 7.92135 58.321 8.60501C58.3218 9.28876 58.5937 9.94427 59.0772 10.4278C59.5607 10.9112 60.2162 11.1832 60.9 11.184Z" fill="#40A2C9"/>
<path d="M41.054 137.001C41.907 137.001 42.664 136.584 43.134 135.944V137.001H43.624C44.7058 137 45.7644 136.687 46.6725 136.099C47.5805 135.511 48.2995 134.673 48.743 133.686C49.1864 134.673 49.9052 135.51 50.8131 136.098C51.721 136.686 52.7793 137 53.861 137.001H54.352V130.9H43.134V132.901C42.895 132.573 42.5821 132.307 42.2206 132.123C41.8592 131.94 41.4594 131.844 41.054 131.844C40.3703 131.845 39.7148 132.116 39.2313 132.6C38.7478 133.083 38.4758 133.738 38.475 134.422C38.476 135.106 38.7481 135.761 39.2315 136.244C39.715 136.728 40.3703 137 41.054 137.001ZM41.054 111.837C41.907 111.837 42.664 111.42 43.134 110.78V111.837H43.624C44.7058 111.836 45.7643 111.523 46.6724 110.935C47.5804 110.347 48.2995 109.51 48.743 108.523C49.1864 109.51 49.9053 110.347 50.8132 110.935C51.7211 111.523 52.7794 111.836 53.861 111.837H54.352V105.737H43.134V107.737C42.8137 107.297 42.3622 106.969 41.8442 106.802C41.3263 106.634 40.7685 106.635 40.2511 106.804C39.7336 106.973 39.2829 107.302 38.9638 107.743C38.6448 108.184 38.4736 108.715 38.475 109.259C38.476 109.943 38.7481 110.598 39.2316 111.081C39.715 111.564 40.3704 111.836 41.054 111.837ZM41.054 27.96C41.907 27.96 42.664 27.543 43.134 26.902V27.959H43.624C44.7057 27.9581 45.7642 27.6449 46.6723 27.057C47.5803 26.4691 48.2994 25.6316 48.743 24.645C49.1865 25.6314 49.9054 26.4689 50.8133 27.0567C51.7212 27.6446 52.7794 27.9579 53.861 27.959H54.352V21.859H43.134V23.859C42.895 23.5315 42.582 23.2651 42.2206 23.0814C41.8591 22.8977 41.4594 22.802 41.054 22.802C40.3702 22.8025 39.7145 23.0744 39.2309 23.558C38.7474 24.0415 38.4755 24.6972 38.475 25.381C38.476 26.0646 38.7481 26.7198 39.2316 27.2031C39.715 27.6864 40.3704 27.9592 41.054 27.96ZM41.054 86.674C41.907 86.674 42.664 86.257 43.134 85.617V86.674H43.624C44.7057 86.6731 45.7642 86.3599 46.6723 85.772C47.5803 85.1841 48.2994 84.3466 48.743 83.36C49.1865 84.3464 49.9054 85.1839 50.8133 85.7717C51.7212 86.3596 52.7794 86.6729 53.861 86.674H54.352V80.574H43.134V82.574C42.895 82.2465 42.582 81.9801 42.2206 81.7964C41.8591 81.6127 41.4594 81.517 41.054 81.517C40.3703 81.5175 39.7148 81.7893 39.2313 82.2726C38.7478 82.7559 38.4758 83.4114 38.475 84.095C38.4758 84.7788 38.7477 85.4343 39.2312 85.9178C39.7147 86.4012 40.3702 86.6732 41.054 86.674Z" fill="#40A2C9"/>
<path fill-rule="evenodd" clip-rule="evenodd" d="M39.549 69.412L40.253 64.868C39.8001 65.0156 39.3969 65.2858 39.0883 65.6487C38.7797 66.0116 38.5777 66.4529 38.5047 66.9237C38.4318 67.3944 38.4908 67.8762 38.6751 68.3155C38.8595 68.7547 39.162 69.1343 39.549 69.412ZM41.054 61.51L42.387 56.726C41.9853 56.4817 41.5242 56.3527 41.054 56.353C40.3702 56.3535 39.7145 56.6254 39.231 57.109C38.7474 57.5925 38.4756 58.2482 38.475 58.932C38.4761 59.6156 38.7482 60.2708 39.2316 60.7541C39.7151 61.2374 40.3705 61.5092 41.054 61.51ZM43.134 43.678C42.895 44.0054 42.582 44.2718 42.2206 44.4555C41.8591 44.6392 41.4595 44.7349 41.054 44.735C40.3703 44.7342 39.7148 44.4622 39.2313 43.9788C38.7478 43.4953 38.4758 42.8398 38.475 42.156C38.4758 41.4724 38.7478 40.8169 39.2313 40.3336C39.7149 39.8503 40.3704 39.5785 41.054 39.578C41.907 39.578 42.664 39.994 43.134 40.635V38.635H53.006L49.49 42.638C49.1903 42.2658 48.9392 41.8568 48.743 41.421C48.2995 42.4074 47.5806 43.2449 46.6727 43.8327C45.7649 44.4206 44.7066 44.7339 43.625 44.735H43.134V43.678ZM43.408 52.066C43.169 52.3935 42.8561 52.6599 42.4946 52.8436C42.1332 53.0273 41.7335 53.123 41.328 53.123C40.6445 53.122 39.9892 52.8499 39.5059 52.3664C39.0227 51.883 38.7508 51.2276 38.75 50.544C38.7508 49.8605 39.0227 49.2053 39.506 48.722C39.9893 48.2387 40.6445 47.9668 41.328 47.966C42.181 47.966 42.939 48.382 43.408 49.023V47.023H46.615L43.654 53.123H43.408V52.066Z" fill="#40A2C9"/>
<path d="M41.328 36.347C42.181 36.347 42.939 35.93 43.408 35.29V36.347H43.9C44.9816 36.3459 46.0398 36.0326 46.9477 35.4447C47.8555 34.8569 48.5744 34.0194 49.018 33.033C49.4615 34.0194 50.1804 34.8569 51.0883 35.4447C51.9962 36.0326 53.0544 36.3459 54.136 36.347H54.626V30.247H43.409V32.247C43.1699 31.9196 42.8569 31.6532 42.4955 31.4695C42.1341 31.2859 41.7344 31.1901 41.329 31.19C40.6453 31.1908 39.9899 31.4628 39.5066 31.9463C39.0233 32.4298 38.7515 33.0854 38.751 33.769C38.752 34.4524 39.024 35.1075 39.5072 35.5908C39.9905 36.074 40.6446 36.3459 41.328 36.347ZM41.054 128.613C41.907 128.613 42.664 128.196 43.134 127.556V128.613H43.624C44.7057 128.612 45.7641 128.299 46.6722 127.711C47.5802 127.123 48.2992 126.286 48.743 125.299C49.1866 126.285 49.9055 127.123 50.8134 127.711C51.7212 128.298 52.7794 128.612 53.861 128.613H54.352V122.512H43.134V124.513C42.895 124.185 42.5821 123.919 42.2206 123.735C41.8592 123.552 41.4594 123.456 41.054 123.456C40.3703 123.457 39.7148 123.728 39.2313 124.212C38.7478 124.695 38.4758 125.35 38.475 126.034C38.476 126.718 38.7481 127.373 39.2315 127.856C39.715 128.34 40.3703 128.612 41.054 128.613ZM41.054 103.449C41.907 103.449 42.664 103.033 43.134 102.392V103.449H43.624C44.7058 103.448 45.7643 103.135 46.6724 102.547C47.5804 101.959 48.2995 101.122 48.743 100.135C49.1864 101.122 49.9053 101.959 50.8132 102.547C51.7211 103.135 52.7794 103.448 53.861 103.449H54.352V97.349H43.134V99.349C42.8949 99.0216 42.5819 98.7552 42.2205 98.5715C41.8591 98.3878 41.4594 98.2921 41.054 98.292C40.3702 98.2925 39.7145 98.5644 39.2309 99.048C38.7474 99.5315 38.4755 100.187 38.475 100.871C38.476 101.555 38.7481 102.21 39.2316 102.693C39.715 103.176 40.3704 103.448 41.054 103.449ZM41.054 19.572C41.907 19.572 42.664 19.155 43.134 18.515V19.571H43.624C44.7057 19.5701 45.7642 19.2569 46.6723 18.669C47.5803 18.0811 48.2993 17.2436 48.743 16.257C49.1865 17.2434 49.9054 18.0809 50.8133 18.6687C51.7212 19.2566 52.7794 19.5699 53.861 19.571H54.352V13.471H43.134V15.471C42.8949 15.1437 42.5819 14.8775 42.2204 14.694C41.859 14.5105 41.4593 14.4149 41.054 14.415C40.3703 14.4155 39.7148 14.6873 39.2313 15.1706C38.7478 15.6539 38.4758 16.3094 38.475 16.993C38.4758 17.6768 38.7477 18.3323 39.2312 18.8158C39.7147 19.2992 40.3702 19.5712 41.054 19.572ZM41.054 120.225C41.907 120.225 42.664 119.808 43.134 119.168V120.225H43.624C44.7057 120.224 45.7641 119.911 46.6722 119.323C47.5802 118.735 48.2992 117.898 48.743 116.911C49.1866 117.897 49.9055 118.735 50.8134 119.323C51.7212 119.91 52.7794 120.224 53.861 120.225H54.352V114.124H43.134V116.125C42.8137 115.685 42.3623 115.357 41.8445 115.19C41.3266 115.022 40.769 115.023 40.2515 115.192C39.7341 115.361 39.2835 115.689 38.9643 116.13C38.6451 116.571 38.4738 117.102 38.475 117.646C38.4758 118.33 38.7477 118.985 39.2312 119.469C39.7147 119.952 40.3702 120.224 41.054 120.225ZM41.054 95.062C41.907 95.062 42.664 94.645 43.134 94.005V95.062H43.624C44.7058 95.061 45.7644 94.7476 46.6725 94.1596C47.5805 93.5715 48.2995 92.7338 48.743 91.747C49.1864 92.7336 49.9052 93.5713 50.8131 94.1593C51.721 94.7474 52.7793 95.0608 53.861 95.062H54.352V88.962H43.134V90.962C42.895 90.6345 42.582 90.3681 42.2206 90.1844C41.8591 90.0007 41.4594 89.905 41.054 89.905C40.3703 89.9055 39.7148 90.1773 39.2313 90.6606C38.7478 91.1439 38.4758 91.7994 38.475 92.483C38.4758 93.1668 38.7477 93.8223 39.2312 94.3058C39.7147 94.7892 40.3702 95.0612 41.054 95.062Z" fill="#40A2C9"/>
<path fill-rule="evenodd" clip-rule="evenodd" d="M54.352 6.384L49.146 8.61C49.6539 9.39919 50.3516 10.0483 51.1754 10.498C51.9991 10.9477 52.9225 11.1836 53.861 11.184H54.352V6.384ZM44.198 11.154L47.857 9.252C46.9236 10.3284 45.6152 11.0079 44.198 11.154Z" fill="#40A2C9"/>
<path d="M21.208 137.001C22.061 137.001 22.818 136.584 23.288 135.944V137.001H23.779C24.8607 137 25.919 136.686 26.8269 136.098C27.7347 135.51 28.4536 134.673 28.897 133.686C29.3404 134.673 30.0592 135.51 30.9671 136.098C31.875 136.686 32.9333 137 34.015 137.001H34.506V130.9H23.288V132.901C23.049 132.573 22.7361 132.307 22.3746 132.123C22.0132 131.94 21.6134 131.844 21.208 131.844C20.5243 131.845 19.8688 132.116 19.3853 132.6C18.9018 133.083 18.6298 133.738 18.629 134.422C18.63 135.106 18.9021 135.761 19.3855 136.244C19.8689 136.728 20.5243 137 21.208 137.001ZM21.208 111.837C22.061 111.837 22.818 111.42 23.288 110.78V111.837H23.779C24.8606 111.836 25.9189 111.523 26.8268 110.935C27.7347 110.347 28.4535 109.51 28.897 108.523C29.3404 109.51 30.0593 110.347 30.9672 110.935C31.8751 111.523 32.9334 111.836 34.015 111.837H34.506V105.737H23.288V107.737C22.9677 107.297 22.5162 106.969 21.9982 106.802C21.4803 106.634 20.9225 106.635 20.405 106.804C19.8876 106.973 19.4369 107.302 19.1178 107.743C18.7988 108.184 18.6276 108.715 18.629 109.259C18.63 109.943 18.9021 110.598 19.3856 111.081C19.869 111.564 20.5244 111.836 21.208 111.837Z" fill="#40A2C9"/>
<path fill-rule="evenodd" clip-rule="evenodd" d="M23.288 26.902C22.9785 27.3262 22.5468 27.6456 22.0506 27.8176C21.5545 27.9895 21.0176 28.0057 20.512 27.864L27.3 21.859H34.506V27.959H34.015C32.9335 27.9579 31.8752 27.6446 30.9673 27.0567C30.0595 26.4689 29.3406 25.6314 28.897 24.645C28.4535 25.6314 27.7346 26.4689 26.8267 27.0567C25.9189 27.6446 24.8606 27.9579 23.779 27.959H23.288V26.902Z" fill="#40A2C9"/>
<path d="M21.208 86.674C22.061 86.674 22.818 86.257 23.288 85.617V86.674H23.779C24.8605 86.6729 25.9188 86.3596 26.8267 85.7717C27.7345 85.1839 28.4534 84.3464 28.897 83.36C29.3405 84.3464 30.0594 85.1839 30.9673 85.7717C31.8751 86.3596 32.9334 86.6729 34.015 86.674H34.506V80.574H23.288V82.574C23.0489 82.2466 22.7359 81.9802 22.3745 81.7965C22.0131 81.6128 21.6134 81.5171 21.208 81.517C20.5243 81.5175 19.8688 81.7893 19.3853 82.2726C18.9018 82.7559 18.6298 83.4114 18.629 84.095C18.6298 84.7788 18.9017 85.4343 19.3852 85.9178C19.8687 86.4012 20.5242 86.6732 21.208 86.674ZM21.208 61.51C22.061 61.51 22.818 61.094 23.288 60.453V61.51H23.779C24.8605 61.5089 25.9188 61.1956 26.8267 60.6077C27.7345 60.0199 28.4534 59.1824 28.897 58.196C29.3405 59.1824 30.0594 60.0199 30.9673 60.6077C31.8751 61.1956 32.9334 61.5089 34.015 61.51H34.506V55.41H23.288V57.41C23.049 57.0825 22.736 56.8161 22.3746 56.6324C22.0131 56.4487 21.6134 56.353 21.208 56.353C20.5241 56.3535 19.8685 56.6254 19.3849 57.109C18.9014 57.5925 18.6295 58.2482 18.629 58.932C18.63 59.6156 18.9021 60.2708 19.3856 60.7541C19.869 61.2374 20.5244 61.5092 21.208 61.51ZM21.208 44.735C22.061 44.735 22.818 44.318 23.288 43.678V44.735H23.779C24.8605 44.7339 25.9188 44.4206 26.8267 43.8327C27.7345 43.2449 28.4534 42.4074 28.897 41.421C29.3405 42.4074 30.0594 43.2449 30.9673 43.8327C31.8751 44.4206 32.9334 44.7339 34.015 44.735H34.506V38.635H23.288V40.635C23.049 40.3075 22.736 40.0411 22.3746 39.8574C22.0131 39.6737 21.6134 39.578 21.208 39.578C20.5243 39.5785 19.8688 39.8503 19.3853 40.3336C18.9018 40.8169 18.6298 41.4724 18.629 42.156C18.6298 42.8398 18.9017 43.4953 19.3852 43.9788C19.8687 44.4622 20.5242 44.7342 21.208 44.735ZM21.483 53.123C22.336 53.123 23.093 52.706 23.563 52.066V53.123H24.053C25.1347 53.1221 26.1932 52.8089 27.1013 52.221C28.0093 51.6331 28.7283 50.7956 29.172 49.809C29.6155 50.7954 30.3344 51.6329 31.2423 52.2207C32.1501 52.8086 33.2084 53.1219 34.29 53.123H34.781V47.023H23.563V49.023C23.3239 48.6956 23.0109 48.4292 22.6495 48.2455C22.2881 48.0619 21.8884 47.9661 21.483 47.966C20.7993 47.9665 20.1438 48.2383 19.6603 48.7216C19.1768 49.2049 18.9048 49.8604 18.904 50.544C18.9048 51.2278 19.1767 51.8833 19.6602 52.3668C20.1437 52.8502 20.7992 53.1222 21.483 53.123ZM21.483 36.347C22.336 36.347 23.093 35.93 23.563 35.29V36.347H24.053C25.1347 36.3461 26.1932 36.0329 27.1013 35.445C28.0093 34.8571 28.7283 34.0196 29.172 33.033C29.6155 34.0194 30.3344 34.8569 31.2423 35.4447C32.1501 36.0326 33.2084 36.3459 34.29 36.347H34.781V30.247H23.563V32.247C23.2427 31.8068 22.7912 31.4794 22.2732 31.3117C21.7553 31.1441 21.1975 31.1448 20.68 31.3139C20.1626 31.4829 19.7119 31.8116 19.3928 32.2527C19.0738 32.6938 18.9026 33.2246 18.904 33.769C18.905 34.4526 19.1771 35.1078 19.6606 35.5911C20.144 36.0744 20.7994 36.3462 21.483 36.347ZM21.208 128.613C22.061 128.613 22.818 128.196 23.288 127.556V128.613H23.779C24.8605 128.612 25.9187 128.298 26.8266 127.711C27.7344 127.123 28.4533 126.285 28.897 125.299C29.3406 126.285 30.0595 127.123 30.9674 127.711C31.8752 128.298 32.9334 128.612 34.015 128.613H34.506V122.512H23.288V124.513C23.049 124.185 22.7361 123.919 22.3746 123.735C22.0132 123.552 21.6134 123.456 21.208 123.456C20.5243 123.457 19.8688 123.728 19.3853 124.212C18.9018 124.695 18.6298 125.35 18.629 126.034C18.63 126.718 18.9021 127.373 19.3855 127.856C19.8689 128.34 20.5243 128.612 21.208 128.613ZM21.208 103.449C22.061 103.449 22.818 103.033 23.288 102.392V103.449H23.779C24.8606 103.448 25.9189 103.135 26.8268 102.547C27.7347 101.959 28.4535 101.122 28.897 100.135C29.3404 101.122 30.0593 101.959 30.9672 102.547C31.8751 103.135 32.9334 103.448 34.015 103.449H34.506V97.349H23.288V99.349C22.9677 98.9088 22.5162 98.5814 21.9982 98.4137C21.4803 98.2461 20.9225 98.2468 20.405 98.4159C19.8876 98.5849 19.4369 98.9136 19.1178 99.3547C18.7988 99.7958 18.6276 100.327 18.629 100.871C18.63 101.555 18.9021 102.21 19.3856 102.693C19.869 103.176 20.5244 103.448 21.208 103.449Z" fill="#40A2C9"/>
<path fill-rule="evenodd" clip-rule="evenodd" d="M34.506 16.658L31.259 18.846C32.0992 19.3227 33.0489 19.5729 34.015 19.572H34.506V16.658Z" fill="#40A2C9"/>
<path d="M21.208 78.286C22.061 78.286 22.818 77.869 23.288 77.229V78.286H23.779C24.8606 78.2849 25.9189 77.9716 26.8267 77.3837C27.7346 76.7959 28.4535 75.9584 28.897 74.972C29.3406 75.9584 30.0595 76.7959 30.9673 77.3837C31.8752 77.9716 32.9335 78.2849 34.015 78.286H34.506V72.186H23.288V74.186C23.049 73.8586 22.736 73.5922 22.3746 73.4085C22.0131 73.2249 21.6134 73.1291 21.208 73.129C20.5244 73.1295 19.8689 73.4013 19.3853 73.8846C18.9018 74.3679 18.6298 75.0234 18.629 75.707C18.6298 76.3908 18.9018 77.0463 19.3853 77.5298C19.8688 78.0132 20.5243 78.2852 21.208 78.286Z" fill="#40A2C9"/>
<path fill-rule="evenodd" clip-rule="evenodd" d="M38.533 78.286L38.977 73.167C38.6064 73.1026 38.2263 73.1199 37.8631 73.2179C37.5 73.3158 37.1626 73.4919 36.8746 73.7338C36.5867 73.9758 36.3551 74.2777 36.196 74.6186C36.037 74.9594 35.9544 75.3309 35.954 75.707C35.9548 76.3908 36.2267 77.0463 36.7102 77.5298C37.1937 78.0132 37.8492 78.2852 38.533 78.286Z" fill="#40A2C9"/>
<path d="M21.208 120.225C22.061 120.225 22.818 119.808 23.288 119.168V120.225H23.779C24.8606 120.224 25.9188 119.91 26.8266 119.323C27.7345 118.735 28.4534 117.897 28.897 116.911C29.3407 117.897 30.0596 118.735 30.9674 119.323C31.8753 119.91 32.9335 120.224 34.015 120.225H34.506V114.124H23.288V116.125C22.9678 115.685 22.5164 115.357 21.9985 115.19C21.4807 115.022 20.923 115.023 20.4056 115.192C19.8881 115.361 19.4375 115.689 19.1183 116.13C18.7992 116.571 18.6279 117.102 18.629 117.646C18.6298 118.33 18.9018 118.985 19.3853 119.469C19.8688 119.952 20.5243 120.224 21.208 120.225ZM21.208 95.062C22.061 95.062 22.818 94.645 23.288 94.005V95.062H23.779C24.8607 95.0608 25.919 94.7474 26.8269 94.1593C27.7348 93.5713 28.4536 92.7336 28.897 91.747C29.3404 92.7336 30.0593 93.5713 30.9671 94.1593C31.875 94.7474 32.9333 95.0608 34.015 95.062H34.506V88.962H23.288V90.962C23.049 90.6345 22.7361 90.3681 22.3746 90.1844C22.0132 90.0007 21.6135 89.905 21.208 89.905C20.5244 89.9055 19.8688 90.1773 19.3853 90.6606C18.9018 91.1439 18.6298 91.7993 18.629 92.483C18.6298 93.1668 18.9018 93.8223 19.3853 94.3058C19.8688 94.7892 20.5243 95.0612 21.208 95.062ZM21.208 69.898C22.061 69.898 22.818 69.481 23.288 68.841V69.898H23.779C24.8606 69.8969 25.9189 69.5836 26.8267 68.9957C27.7346 68.4079 28.4535 67.5704 28.897 66.584C29.3406 67.5704 30.0595 68.4079 30.9673 68.9957C31.8752 69.5836 32.9335 69.8969 34.015 69.898H34.506V63.798H23.288V65.798C23.049 65.4705 22.7361 65.2041 22.3746 65.0204C22.0132 64.8367 21.6135 64.741 21.208 64.741C20.5242 64.7415 19.8685 65.0134 19.385 65.497C18.9014 65.9805 18.6296 66.6362 18.629 67.32C18.6301 68.0036 18.9022 68.6588 19.3856 69.1421C19.8691 69.6254 20.5245 69.8972 21.208 69.898ZM2.68503 137.001C3.53803 137.001 4.29503 136.584 4.76503 135.944V137.001H5.25603C6.33771 137 7.39604 136.686 8.30392 136.098C9.2118 135.51 9.93061 134.673 10.374 133.686C10.8174 134.673 11.5363 135.51 12.4441 136.098C13.352 136.686 14.4103 137 15.492 137.001H15.983V130.9H4.76503V132.901C4.52607 132.573 4.21312 132.307 3.85167 132.123C3.49021 131.94 3.09048 131.844 2.68503 131.844C2.00137 131.845 1.34585 132.116 0.862336 132.6C0.378823 133.083 0.106821 133.738 0.106026 134.422C0.107084 135.106 0.379139 135.761 0.862566 136.244C1.34599 136.728 2.00136 137 2.68503 137.001ZM2.68503 111.837C3.53803 111.837 4.29503 111.42 4.76503 110.78V111.837H5.25603C6.33763 111.836 7.39594 111.523 8.30382 110.935C9.21171 110.347 9.93056 109.51 10.374 108.523C10.8175 109.51 11.5363 110.347 12.4442 110.935C13.3521 111.523 14.4104 111.836 15.492 111.837H15.983V105.737H4.76503V107.737C4.44474 107.297 3.99322 106.969 3.47527 106.802C2.95733 106.634 2.39958 106.635 1.88209 106.804C1.36461 106.973 0.913979 107.302 0.594891 107.743C0.275803 108.184 0.10466 108.715 0.106026 109.259C0.107085 109.943 0.379172 110.598 0.862627 111.081C1.34608 111.564 2.00145 111.836 2.68503 111.837ZM2.68503 86.674C3.53803 86.674 4.29503 86.257 4.76503 85.617V86.674H5.25603C6.3376 86.6729 7.39586 86.3596 8.30372 85.7717C9.21159 85.1839 9.93046 84.3464 10.374 83.36C10.8176 84.3464 11.5365 85.1839 12.4443 85.7717C13.3522 86.3596 14.4105 86.6729 15.492 86.674H15.983V80.574H4.76503V82.574C4.52596 82.2466 4.21299 81.9802 3.85156 81.7965C3.49013 81.6128 3.09045 81.5171 2.68503 81.517C2.00137 81.5175 1.34585 81.7893 0.862336 82.2726C0.378823 82.7559 0.106821 83.4113 0.106026 84.095C0.10682 84.7788 0.37879 85.4343 0.862275 85.9178C1.34576 86.4012 2.00128 86.6732 2.68503 86.674Z" fill="#40A2C9"/>
<path fill-rule="evenodd" clip-rule="evenodd" d="M3.95002 56.685L2.83502 61.506C3.21447 61.4837 3.58428 61.3777 3.91795 61.1957C4.25162 61.0136 4.54089 60.76 4.76502 60.453V61.51H5.25602C6.33759 61.5089 7.39585 61.1956 8.30372 60.6077C9.21158 60.0199 9.93046 59.1824 10.374 58.196C10.8176 59.1824 11.5365 60.0199 12.4443 60.6077C13.3522 61.1956 14.4104 61.5089 15.492 61.51H15.983V55.41H4.76502V57.41C4.54735 57.1136 4.26921 56.8668 3.94902 56.686L3.95002 56.685ZM11.608 38.634L8.76302 43.5C9.45607 42.9432 10.0077 42.2305 10.373 41.42C10.8165 42.4068 11.5355 43.2445 12.4435 43.8326C13.3516 44.4206 14.4102 44.734 15.492 44.735H15.983V38.635L11.608 38.634ZM7.16202 47.022L5.04002 52.862V53.122H5.53002C6.61165 53.1212 7.67005 52.8081 8.5781 52.2204C9.48615 51.6327 10.2052 50.7954 10.649 49.809C11.0926 50.7954 11.8115 51.6329 12.7193 52.2207C13.6272 52.8086 14.6855 53.1219 15.767 53.123H16.257V47.023H7.16302L7.16202 47.022ZM16.258 32.506L13.55 35.89C14.23 36.183 14.98 36.346 15.766 36.346H16.256V32.505L16.258 32.506Z" fill="#40A2C9"/>
<path d="M2.68503 128.613C3.53803 128.613 4.29503 128.196 4.76503 127.556V128.613H5.25603C6.33757 128.612 7.39577 128.298 8.30362 127.711C9.21146 127.123 9.93036 126.285 10.374 125.299C10.8177 126.285 11.5366 127.123 12.4444 127.711C13.3523 128.298 14.4105 128.612 15.492 128.613H15.983V122.512H4.76503V124.513C4.52607 124.185 4.21312 123.919 3.85167 123.735C3.49021 123.552 3.09048 123.456 2.68503 123.456C2.00137 123.457 1.34585 123.728 0.862336 124.212C0.378823 124.695 0.106821 125.35 0.106026 126.034C0.107084 126.718 0.379139 127.373 0.862566 127.856C1.34599 128.34 2.00136 128.612 2.68503 128.613ZM2.68503 103.449C3.53803 103.449 4.29503 103.033 4.76503 102.392V103.449H5.25603C6.33763 103.448 7.39594 103.135 8.30382 102.547C9.21171 101.959 9.93056 101.122 10.374 100.135C10.8175 101.122 11.5363 101.959 12.4442 102.547C13.3521 103.135 14.4104 103.448 15.492 103.449H15.983V97.349H4.76503V99.349C4.44474 98.9088 3.99322 98.5814 3.47527 98.4137C2.95733 98.2461 2.39958 98.2468 1.88209 98.4159C1.36461 98.5849 0.913979 98.9136 0.594891 99.3547C0.275803 99.7958 0.10466 100.327 0.106026 100.871C0.107085 101.555 0.379172 102.21 0.862627 102.693C1.34608 103.176 2.00145 103.448 2.68503 103.449Z" fill="#40A2C9"/>
<path fill-rule="evenodd" clip-rule="evenodd" d="M4.76499 77.229C4.53112 77.5495 4.22634 77.8117 3.87444 77.995C3.52253 78.1783 3.13303 78.2778 2.73632 78.2858C2.33961 78.2937 1.94643 78.2099 1.58748 78.0408C1.22852 77.8717 0.913495 77.6219 0.666992 77.311L0.992992 73.763C1.26209 73.5286 1.57696 73.3527 1.91762 73.2464C2.25828 73.1401 2.61732 73.1058 2.97195 73.1456C3.32659 73.1853 3.6691 73.2983 3.97775 73.4775C4.28641 73.6566 4.55449 73.8978 4.76499 74.186V72.186H15.983V78.286H15.492C14.4104 78.2849 13.3522 77.9716 12.4443 77.3837C11.5364 76.7959 10.8176 75.9584 10.374 74.972C9.93043 75.9584 9.21155 76.7959 8.30369 77.3837C7.39582 77.9716 6.33756 78.2849 5.25599 78.286H4.76499V77.229Z" fill="#40A2C9"/>
<path d="M2.68502 120.225C3.53802 120.225 4.29502 119.808 4.76502 119.168V120.225H5.25602C6.33757 120.224 7.39577 119.91 8.30361 119.323C9.21146 118.735 9.93036 117.897 10.374 116.911C10.8177 117.897 11.5366 118.735 12.4444 119.323C13.3523 119.91 14.4105 120.224 15.492 120.225H15.983V114.124H4.76502V116.125C4.44479 115.685 3.99336 115.357 3.47551 115.19C2.95766 115.022 2.40001 115.023 1.88257 115.192C1.36513 115.361 0.914497 115.689 0.595331 116.13C0.276165 116.571 0.10487 117.102 0.106024 117.646C0.106818 118.33 0.378788 118.985 0.862272 119.469C1.34576 119.952 2.00127 120.224 2.68502 120.225ZM2.68502 95.062C3.53802 95.062 4.29502 94.645 4.76502 94.005V95.062H5.25602C6.33771 95.0608 7.39604 94.7474 8.30392 94.1593C9.21179 93.5713 9.93061 92.7336 10.374 91.747C10.8174 92.7336 11.5363 93.5713 12.4441 94.1593C13.352 94.7474 14.4103 95.0608 15.492 95.062H15.983V88.962H4.76502V90.962C4.52601 90.6345 4.21305 90.3681 3.85161 90.1844C3.49017 90.0007 3.09046 89.905 2.68502 89.905C2.00137 89.9055 1.34585 90.1773 0.862333 90.6606C0.378821 91.1439 0.106818 91.7994 0.106024 92.483C0.106818 93.1668 0.378788 93.8223 0.862272 94.3058C1.34576 94.7892 2.00127 95.0612 2.68502 95.062Z" fill="#40A2C9"/>
<path fill-rule="evenodd" clip-rule="evenodd" d="M4.765 68.841C4.39974 69.3411 3.86655 69.6929 3.26308 69.8319C2.65961 69.9709 2.02625 69.8879 1.479 69.598L2.203 64.786C2.68202 64.6958 3.1768 64.7429 3.63017 64.922C4.08353 65.1011 4.47696 65.4048 4.765 65.798V63.798H15.983V69.898H15.492C14.4104 69.8969 13.3522 69.5836 12.4443 68.9957C11.5364 68.4079 10.8176 67.5704 10.374 66.584C9.93044 67.5704 9.21156 68.4079 8.3037 68.9957C7.39583 69.5836 6.33758 69.8969 5.256 69.898H4.765V68.841Z" fill="#40A2C9"/>
</g>
<defs>
<clipPath id="clip0_13_22">
<rect width="164" height="137" fill="white"/>
</clipPath>
</defs>
</svg>
