<svg width="30" height="31" fill="none" xmlns="http://www.w3.org/2000/svg"><path d="M21.062.122H8.936A8.947 8.947 0 0 0 0 9.059v12.127a8.947 8.947 0 0 0 8.938 8.936h12.126A8.947 8.947 0 0 0 30 21.184V9.058A8.947 8.947 0 0 0 21.062.122Zm5.92 21.062a5.92 5.92 0 0 1-5.92 5.92H8.936a5.92 5.92 0 0 1-5.919-5.92V9.058a5.92 5.92 0 0 1 5.92-5.919h12.127a5.92 5.92 0 0 1 5.919 5.92v12.125Z" fill="#F1F1F1"/><path d="M15 7.363a7.769 7.769 0 0 0-7.757 7.758A7.768 7.768 0 0 0 15 22.881a7.769 7.769 0 0 0 7.76-7.76 7.769 7.769 0 0 0-7.762-7.756v-.002Zm0 12.5a4.74 4.74 0 1 1-.001-9.48 4.74 4.74 0 0 1 0 9.48ZM22.774 9.28a1.859 1.859 0 1 0 0-3.717 1.859 1.859 0 0 0 0 3.718Z" fill="#F1F1F1"/></svg>