<svg width="33" height="33" fill="none" xmlns="http://www.w3.org/2000/svg"><path d="M22.956 0H9.74A9.751 9.751 0 0 0 0 9.741v13.217a9.751 9.751 0 0 0 9.741 9.74h13.217a9.75 9.75 0 0 0 9.74-9.742V9.74A9.75 9.75 0 0 0 22.956 0Zm6.453 22.956a6.454 6.454 0 0 1-6.453 6.453H9.74a6.452 6.452 0 0 1-6.451-6.453V9.74A6.453 6.453 0 0 1 9.74 3.289h13.217a6.453 6.453 0 0 1 6.451 6.452v13.215Z" fill="#F1F1F1"/><path d="M16.348 7.892a8.467 8.467 0 0 0-8.454 8.455 8.467 8.467 0 0 0 8.455 8.458 8.467 8.467 0 0 0 8.458-8.458 8.467 8.467 0 0 0-8.46-8.454v-.001Zm0 13.624a5.167 5.167 0 1 1 0-10.334 5.167 5.167 0 0 1 0 10.334Z" fill="#F1F1F1"/><path d="M24.821 9.982a2.026 2.026 0 1 0 0-4.051 2.026 2.026 0 0 0 0 4.051Z" fill="#D6FF35"/></svg>