<svg width="36" height="35" fill="none" xmlns="http://www.w3.org/2000/svg"><path fill-rule="evenodd" clip-rule="evenodd" d="M35.636 34.054V20.88c0-7.056-3.77-10.341-8.795-10.341-4.059 0-5.869 2.227-6.885 3.795v-3.254h-7.64c.103 2.156 0 22.975 0 22.975h7.64V21.221c0-.684.054-1.368.253-1.86.553-1.375 1.81-2.794 3.92-2.794 2.766 0 3.87 2.107 3.87 5.193v12.294h7.637Zm-15.68-19.721v.075h-.05l.05-.075ZM8.093 34.054H.453V11.08h7.64v22.975Z" fill="#F1F1F1"/><path d="M4.323 0C1.71 0 0 1.718 0 3.97c0 2.21 1.66 3.973 4.223 3.973h.05c2.665 0 4.323-1.767 4.323-3.973C8.546 1.718 6.938 0 4.323 0Z" fill="#D6FF35"/></svg>