<svg width="29" height="29" fill="none" xmlns="http://www.w3.org/2000/svg"><g clip-path="url(#a)" fill="#fff"><path d="M6.676 3.28c0 1.706-1.248 3.089-3.3 3.089-1.931-.003-3.18-1.383-3.18-3.09C.197 1.575 1.486.192 3.459.192s3.179 1.34 3.218 3.089ZM.358 28.67V8.803h6.117V28.67H.358ZM10.136 15.14c0-2.476-.08-4.548-.162-6.337h5.314l.283 2.763h.121c.804-1.3 2.777-3.209 6.078-3.209 4.026 0 7.043 2.723 7.043 8.573v11.74h-6.117V17.661c0-2.56-.886-4.306-3.1-4.306-1.69 0-2.695 1.177-3.14 2.314-.16.406-.2.975-.2 1.543v11.456h-6.118v-13.53l-.002.003Z"/></g><defs><clipPath id="a"><path fill="#fff" transform="translate(.197 .191)" d="M0 0h28.617v28.479H0z"/></clipPath></defs></svg>