<svg width="30" height="30" fill="none" xmlns="http://www.w3.org/2000/svg"><path d="M22.5 16.695v5.546h-3.215v-5.175c0-1.3-.465-2.186-1.629-2.186-.888 0-1.417.597-1.65 1.176-.084.207-.106.495-.106.783v5.402h-3.216s.043-8.763 0-9.67H15.9v1.369l-.021.031h.02v-.031c.428-.66 1.19-1.598 2.899-1.598 2.115 0 3.702 1.383 3.702 4.353ZM9.32 7.907c-1.1 0-1.82.723-1.82 1.67 0 .93.699 1.673 1.777 1.673h.021c1.122 0 1.82-.744 1.82-1.672-.021-.948-.698-1.671-1.799-1.671ZM7.69 22.24h3.216v-9.67H7.69v9.67Z" fill="#F1F1F1"/><path d="M6 3a3 3 0 0 0-3 3v18a3 3 0 0 0 3 3h18a3 3 0 0 0 3-3V6a3 3 0 0 0-3-3H6Zm0-3h18a6 6 0 0 1 6 6v18a6 6 0 0 1-6 6H6a6 6 0 0 1-6-6V6a6 6 0 0 1 6-6Z" fill="#F1F1F1"/></svg>