<svg width="780" height="132" fill="none" xmlns="http://www.w3.org/2000/svg"><g clip-path="url(#a)" fill="#F1F1F1"><path d="M336.13 55.04V.61h9.96v54.43h-9.96ZM374.14 51.09h-.61a16.741 16.741 0 0 1-4.22 3.65c-1.65 1.01-3.76 1.52-6.35 1.52-1.93 0-3.74-.32-5.44-.95-1.7-.63-3.18-1.51-4.45-2.62a11.527 11.527 0 0 1-2.96-4.03c-.71-1.57-1.06-3.29-1.06-5.17s.38-3.66 1.14-5.21a11.72 11.72 0 0 1 3.19-3.99c1.37-1.11 2.98-1.96 4.83-2.55 1.85-.58 3.86-.87 6.04-.87 2.43 0 4.43.19 6.01.57 1.57.38 2.86.77 3.88 1.18v-1.14c0-1.98-.79-3.61-2.36-4.9-1.57-1.29-3.52-1.94-5.85-1.94-3.45 0-6.36 1.44-8.74 4.33l-7.22-4.94c3.95-4.97 9.35-7.45 16.19-7.45 5.78 0 10.19 1.36 13.23 4.07 3.04 2.71 4.56 6.73 4.56 12.05v22.35h-9.81v-3.96Zm0-11.18a20.6 20.6 0 0 0-3.61-1.33c-1.24-.33-2.6-.49-4.07-.49-2.38 0-4.22.52-5.51 1.56s-1.94 2.32-1.94 3.84.62 2.74 1.86 3.65c1.24.91 2.67 1.37 4.3 1.37 1.32 0 2.53-.24 3.65-.72 1.11-.48 2.06-1.11 2.85-1.9.79-.79 1.39-1.7 1.82-2.74.43-1.04.65-2.12.65-3.23v-.01ZM402.49 17.79h9.35v4.87h.61c1.17-1.82 2.75-3.29 4.75-4.41 2-1.11 4.22-1.67 6.65-1.67 2.84 0 5.22.66 7.15 1.98 1.93 1.32 3.29 2.94 4.1 4.87 1.17-1.87 2.81-3.48 4.94-4.83 2.13-1.34 4.71-2.01 7.75-2.01 2.28 0 4.26.37 5.93 1.1 1.67.74 3.05 1.76 4.14 3.08 1.09 1.32 1.91 2.9 2.47 4.75.56 1.85.84 3.86.84 6.04v23.49h-9.96V33.38c0-5.07-2.08-7.6-6.23-7.6-1.32 0-2.48.29-3.5.87a7.861 7.861 0 0 0-2.55 2.36c-.68.99-1.22 2.17-1.6 3.53-.38 1.37-.57 2.84-.57 4.41v18.09h-9.96V33.37c0-5.07-2.18-7.6-6.54-7.6-1.27 0-2.38.29-3.34.87-.96.58-1.77 1.37-2.43 2.36-.66.99-1.17 2.17-1.52 3.53-.35 1.37-.53 2.84-.53 4.41v18.09h-9.96V17.79h.01ZM488.93 51.09h-.61a16.741 16.741 0 0 1-4.22 3.65c-1.65 1.01-3.76 1.52-6.35 1.52-1.93 0-3.74-.32-5.44-.95-1.7-.63-3.18-1.51-4.45-2.62a11.527 11.527 0 0 1-2.96-4.03c-.71-1.57-1.06-3.29-1.06-5.17s.38-3.66 1.14-5.21a11.72 11.72 0 0 1 3.19-3.99c1.37-1.11 2.98-1.96 4.83-2.55 1.85-.58 3.86-.87 6.04-.87 2.43 0 4.43.19 6.01.57 1.57.38 2.86.77 3.88 1.18v-1.14c0-1.98-.79-3.61-2.36-4.9-1.57-1.29-3.52-1.94-5.85-1.94-3.45 0-6.36 1.44-8.74 4.33l-7.22-4.94c3.95-4.97 9.35-7.45 16.19-7.45 5.78 0 10.19 1.36 13.23 4.07 3.04 2.71 4.56 6.73 4.56 12.05v22.35h-9.81v-3.96Zm0-11.18a20.6 20.6 0 0 0-3.61-1.33c-1.24-.33-2.6-.49-4.07-.49-2.38 0-4.22.52-5.51 1.56s-1.94 2.32-1.94 3.84.62 2.74 1.86 3.65c1.24.91 2.67 1.37 4.29 1.37 1.32 0 2.53-.24 3.65-.72 1.11-.48 2.06-1.11 2.85-1.9.79-.79 1.39-1.7 1.82-2.74.43-1.04.65-2.12.65-3.23l.01-.01ZM509.15 12.77c-.86 0-1.69-.16-2.47-.49-.79-.33-1.47-.79-2.05-1.37a6.462 6.462 0 0 1-1.37-2.01c-.33-.76-.49-1.6-.49-2.51 0-.91.16-1.75.49-2.51A6.412 6.412 0 0 1 506.68.5a6.33 6.33 0 0 1 2.47-.49c1.77 0 3.29.62 4.56 1.86 1.27 1.24 1.9 2.75 1.9 4.52 0 1.77-.63 3.28-1.9 4.52-1.27 1.24-2.79 1.86-4.56 1.86Zm-4.94 42.27V17.79h9.96v37.25h-9.96ZM535 56.26c-2.43 0-4.6-.3-6.5-.91-1.9-.61-3.55-1.41-4.94-2.39-1.39-.99-2.57-2.13-3.54-3.42-.96-1.29-1.7-2.6-2.2-3.92l8.89-3.8c.86 1.93 2.01 3.36 3.46 4.3 1.44.94 3.05 1.41 4.83 1.41 1.78 0 3.27-.33 4.33-.99 1.06-.66 1.6-1.44 1.6-2.36 0-1.01-.44-1.84-1.33-2.47-.89-.63-2.42-1.2-4.6-1.71l-5.25-1.14c-1.17-.25-2.37-.66-3.61-1.22-1.24-.56-2.37-1.27-3.38-2.13-1.01-.86-1.85-1.9-2.51-3.12-.66-1.22-.99-2.63-.99-4.26 0-1.82.39-3.45 1.18-4.87.79-1.42 1.86-2.62 3.23-3.61 1.37-.99 2.98-1.75 4.83-2.28 1.85-.53 3.84-.8 5.97-.8 3.55 0 6.71.7 9.5 2.09s4.84 3.61 6.16 6.65l-8.59 3.5c-.71-1.47-1.75-2.53-3.12-3.19-1.37-.66-2.74-.99-4.1-.99-1.36 0-2.66.29-3.73.87-1.06.58-1.6 1.33-1.6 2.24 0 .86.44 1.55 1.33 2.05.89.51 2.09.96 3.61 1.37l5.7 1.37c3.8.91 6.63 2.37 8.48 4.37 1.85 2 2.77 4.37 2.77 7.11 0 1.62-.38 3.17-1.14 4.64-.76 1.47-1.84 2.77-3.23 3.92-1.39 1.14-3.07 2.04-5.02 2.7-1.95.66-4.12.99-6.5.99h.01ZM571.94 16.57c2.89 0 5.54.49 7.94 1.48 2.41.99 4.48 2.36 6.23 4.11 1.75 1.75 3.12 3.84 4.11 6.27.99 2.43 1.48 5.09 1.48 7.98 0 2.89-.49 5.55-1.48 7.98-.99 2.43-2.36 4.52-4.11 6.27-1.75 1.75-3.83 3.12-6.23 4.1-2.41.99-5.06 1.48-7.94 1.48-2.88 0-5.54-.49-7.94-1.48-2.41-.99-4.48-2.36-6.23-4.1-1.75-1.75-3.12-3.84-4.1-6.27-.98-2.43-1.48-5.09-1.48-7.98 0-2.89.49-5.55 1.48-7.98.99-2.43 2.36-4.52 4.1-6.27 1.74-1.75 3.83-3.12 6.23-4.11 2.41-.99 5.06-1.48 7.94-1.48Zm0 30.48c1.27 0 2.5-.24 3.69-.72a9.38 9.38 0 0 0 3.15-2.09c.91-.91 1.63-2.03 2.17-3.34.53-1.32.8-2.81.8-4.49 0-1.68-.27-3.17-.8-4.49-.53-1.32-1.25-2.43-2.17-3.34a9.38 9.38 0 0 0-3.15-2.09 9.777 9.777 0 0 0-3.69-.72c-1.27 0-2.56.24-3.73.72s-2.2 1.18-3.12 2.09c-.91.91-1.63 2.03-2.17 3.34-.53 1.32-.8 2.81-.8 4.49 0 1.68.27 3.17.8 4.49.53 1.32 1.25 2.43 2.17 3.34.92.91 1.95 1.61 3.12 2.09 1.17.48 2.41.72 3.73.72ZM603.64 22.65h.61c1.17-1.87 2.74-3.36 4.71-4.45 1.98-1.09 4.23-1.63 6.77-1.63 2.33 0 4.38.38 6.16 1.14 1.77.76 3.23 1.84 4.37 3.23 1.14 1.39 2 3.07 2.58 5.02.58 1.95.87 4.12.87 6.5v22.58h-9.96V33.68c0-2.69-.6-4.68-1.79-5.97s-2.93-1.94-5.21-1.94c-1.37 0-2.57.29-3.61.87a8.321 8.321 0 0 0-2.66 2.36c-.74.99-1.29 2.15-1.67 3.5-.38 1.34-.57 2.77-.57 4.3v18.24h-9.96V17.79h9.35v4.87l.01-.01ZM363.88 110.59h-.61c-.91 1.57-2.33 2.91-4.26 4.03-1.93 1.11-4.31 1.67-7.15 1.67-2.38 0-4.65-.49-6.8-1.48-2.15-.99-4.06-2.36-5.7-4.1-1.65-1.75-2.95-3.84-3.92-6.27-.96-2.43-1.44-5.09-1.44-7.98 0-2.89.48-5.55 1.44-7.98.96-2.43 2.27-4.52 3.92-6.27a18.28 18.28 0 0 1 5.7-4.11c2.15-.99 4.42-1.48 6.8-1.48 2.84 0 5.22.56 7.15 1.67 1.93 1.12 3.35 2.46 4.26 4.03h.61l-.61-5.32V60.66h9.96v54.43h-9.35v-4.5Zm-9.96-3.5c1.32 0 2.57-.24 3.76-.72a9.38 9.38 0 0 0 3.15-2.09c.91-.91 1.65-2.03 2.2-3.34.56-1.32.84-2.81.84-4.49 0-1.68-.28-3.17-.84-4.49-.56-1.32-1.29-2.43-2.2-3.34a9.38 9.38 0 0 0-3.15-2.09 9.982 9.982 0 0 0-3.76-.72c-1.31 0-2.57.25-3.76.76a9.964 9.964 0 0 0-3.15 2.13c-.91.91-1.65 2.03-2.2 3.34-.56 1.32-.84 2.79-.84 4.41s.28 3.09.84 4.41c.56 1.32 1.29 2.43 2.2 3.34.91.91 1.96 1.62 3.15 2.13 1.19.51 2.44.76 3.76.76ZM413.59 106.1c-1.72 3.04-4.04 5.5-6.96 7.37-2.91 1.87-6.47 2.81-10.68 2.81-2.84 0-5.46-.49-7.87-1.48s-4.5-2.37-6.27-4.14c-1.77-1.77-3.15-3.86-4.14-6.27-.99-2.41-1.48-5.06-1.48-7.94 0-2.69.48-5.23 1.44-7.64.96-2.41 2.31-4.51 4.03-6.31 1.72-1.8 3.76-3.23 6.12-4.3 2.36-1.06 4.95-1.6 7.79-1.6 2.99 0 5.65.49 7.98 1.48s4.28 2.36 5.85 4.11c1.57 1.75 2.76 3.81 3.57 6.2.81 2.38 1.22 4.97 1.22 7.75v.91c-.05.3-.08.58-.08.84-.05.25-.08.53-.08.84h-28.05c.2 1.52.62 2.83 1.25 3.92.63 1.09 1.42 2 2.36 2.74a9.07 9.07 0 0 0 3.08 1.6c1.11.33 2.25.49 3.42.49 2.28 0 4.17-.52 5.66-1.56 1.49-1.04 2.67-2.34 3.54-3.92l8.29 4.1h.01Zm-9.05-14.44c-.05-.66-.27-1.39-.65-2.2-.38-.81-.94-1.57-1.67-2.28-.73-.71-1.65-1.29-2.74-1.75-1.09-.46-2.4-.68-3.92-.68-2.13 0-4 .61-5.63 1.82-1.62 1.22-2.76 2.92-3.42 5.09h18.03ZM430.93 77.82h9.35v4.49h.61c.91-1.57 2.33-2.91 4.26-4.03 1.93-1.11 4.31-1.67 7.15-1.67 2.38 0 4.65.49 6.8 1.48 2.15.99 4.05 2.36 5.7 4.11 1.65 1.75 2.95 3.84 3.92 6.27.96 2.43 1.44 5.09 1.44 7.98 0 2.89-.48 5.55-1.44 7.98-.96 2.43-2.27 4.52-3.92 6.27a18.091 18.091 0 0 1-5.7 4.1c-2.15.99-4.42 1.48-6.8 1.48-2.84 0-5.22-.56-7.15-1.67-1.93-1.11-3.34-2.46-4.26-4.03h-.61l.61 5.32v15.58h-9.96V77.81v.01Zm19.31 29.27c1.32 0 2.57-.25 3.76-.76a9.964 9.964 0 0 0 3.15-2.13c.91-.91 1.65-2.03 2.2-3.34.56-1.32.84-2.79.84-4.41s-.28-3.09-.84-4.41c-.56-1.32-1.29-2.43-2.2-3.34a9.964 9.964 0 0 0-3.15-2.13 9.465 9.465 0 0 0-3.76-.76c-1.31 0-2.57.24-3.76.72a9.38 9.38 0 0 0-3.15 2.09c-.91.91-1.65 2.03-2.2 3.34-.56 1.32-.84 2.81-.84 4.49 0 1.68.28 3.17.84 4.49.56 1.32 1.29 2.43 2.2 3.34a9.38 9.38 0 0 0 3.15 2.09c1.19.48 2.44.72 3.76.72ZM473.12 77.82h9.35v5.17h.61c.46-.91 1.06-1.75 1.82-2.51.76-.76 1.61-1.42 2.55-1.99.94-.56 1.95-1.02 3.04-1.37 1.09-.35 2.17-.52 3.23-.52 1.32 0 2.44.14 3.38.42.94.28 1.74.65 2.39 1.1l-2.66 8.89c-.61-.3-1.28-.54-2.01-.72-.74-.18-1.63-.27-2.7-.27-1.37 0-2.61.27-3.73.8a8.12 8.12 0 0 0-2.85 2.25c-.79.97-1.39 2.1-1.82 3.4-.43 1.3-.65 2.71-.65 4.24v18.34h-9.96V77.8l.01.02ZM516.37 76.61c2.89 0 5.54.49 7.94 1.48 2.41.99 4.48 2.36 6.23 4.11 1.75 1.75 3.12 3.84 4.11 6.27.99 2.43 1.48 5.09 1.48 7.98 0 2.89-.49 5.55-1.48 7.98-.99 2.43-2.36 4.52-4.11 6.27-1.75 1.75-3.83 3.12-6.23 4.1-2.41.99-5.06 1.48-7.94 1.48-2.88 0-5.54-.49-7.94-1.48-2.41-.99-4.48-2.36-6.23-4.1-1.75-1.75-3.12-3.84-4.1-6.27-.98-2.43-1.48-5.09-1.48-7.98 0-2.89.49-5.55 1.48-7.98.99-2.43 2.36-4.52 4.1-6.27 1.74-1.75 3.83-3.12 6.23-4.11 2.41-.99 5.06-1.48 7.94-1.48Zm0 30.48c1.27 0 2.5-.24 3.69-.72a9.38 9.38 0 0 0 3.15-2.09c.91-.91 1.63-2.03 2.17-3.34.53-1.32.8-2.81.8-4.49 0-1.68-.27-3.17-.8-4.49-.53-1.32-1.25-2.43-2.17-3.34a9.38 9.38 0 0 0-3.15-2.09 9.777 9.777 0 0 0-3.69-.72c-1.27 0-2.56.24-3.73.72s-2.2 1.18-3.12 2.09c-.91.91-1.63 2.03-2.17 3.34-.53 1.32-.8 2.81-.8 4.49 0 1.68.27 3.17.8 4.49.53 1.32 1.25 2.43 2.17 3.34.92.91 1.95 1.61 3.12 2.09 1.17.48 2.41.72 3.73.72ZM567.23 110.59h-.61c-.91 1.57-2.33 2.91-4.26 4.03-1.93 1.11-4.31 1.67-7.15 1.67-2.38 0-4.65-.49-6.8-1.48-2.15-.99-4.06-2.36-5.7-4.1-1.65-1.75-2.95-3.84-3.92-6.27-.96-2.43-1.44-5.09-1.44-7.98 0-2.89.48-5.55 1.44-7.98.96-2.43 2.27-4.52 3.92-6.27a18.28 18.28 0 0 1 5.7-4.11c2.15-.99 4.42-1.48 6.8-1.48 2.84 0 5.22.56 7.15 1.67 1.93 1.12 3.35 2.46 4.26 4.03h.61l-.61-5.32V60.66h9.96v54.43h-9.35v-4.5Zm-9.96-3.5c1.32 0 2.57-.24 3.76-.72a9.38 9.38 0 0 0 3.15-2.09c.91-.91 1.65-2.03 2.2-3.34.56-1.32.84-2.81.84-4.49 0-1.68-.28-3.17-.84-4.49-.56-1.32-1.29-2.43-2.2-3.34a9.38 9.38 0 0 0-3.15-2.09 9.982 9.982 0 0 0-3.76-.72c-1.31 0-2.57.25-3.76.76a9.964 9.964 0 0 0-3.15 2.13c-.91.91-1.65 2.03-2.2 3.34-.56 1.32-.84 2.79-.84 4.41s.28 3.09.84 4.41c.56 1.32 1.29 2.43 2.2 3.34.91.91 1.96 1.62 3.15 2.13 1.19.51 2.44.76 3.76.76ZM607.82 110.21h-.61c-1.17 1.88-2.74 3.36-4.71 4.45-1.98 1.09-4.23 1.63-6.77 1.63-4.71 0-8.22-1.44-10.53-4.33-2.31-2.89-3.46-6.74-3.46-11.55V77.83h9.96v21.36c0 2.69.6 4.68 1.79 5.97s2.93 1.94 5.21 1.94c1.37 0 2.57-.29 3.61-.87a8.321 8.321 0 0 0 2.66-2.36c.73-.99 1.29-2.15 1.67-3.5.38-1.34.57-2.77.57-4.3V77.83h9.96v37.25h-9.35v-4.87ZM657.62 105.57c-1.62 3.14-3.89 5.71-6.8 7.72-2.92 2-6.55 3-10.91 3-2.89 0-5.54-.49-7.94-1.48-2.41-.99-4.49-2.37-6.23-4.14-1.75-1.77-3.12-3.86-4.1-6.27-.99-2.41-1.48-5.06-1.48-7.94 0-2.88.49-5.55 1.48-7.98.99-2.43 2.36-4.52 4.1-6.27 1.74-1.75 3.83-3.12 6.23-4.11 2.41-.99 5.06-1.48 7.94-1.48 4.31 0 7.93.99 10.87 2.96 2.94 1.98 5.09 4.54 6.46 7.68l-9.12 3.8c-.86-1.72-1.96-3.03-3.31-3.92-1.34-.89-3.03-1.33-5.06-1.33-1.32 0-2.56.25-3.73.76a9.665 9.665 0 0 0-3.08 2.13c-.89.91-1.58 2.03-2.09 3.34-.51 1.32-.76 2.79-.76 4.41s.25 3.09.76 4.41c.51 1.32 1.2 2.43 2.09 3.34.89.91 1.91 1.62 3.08 2.13 1.17.51 2.41.76 3.73.76 2.08 0 3.84-.47 5.28-1.41 1.44-.94 2.6-2.29 3.46-4.07l9.12 3.95.01.01ZM664.38 86.34h-6.54v-8.51h6.54v-11.4h9.96v11.4h9.12v8.51h-9.12v14.88c0 .89.09 1.71.27 2.47.18.76.52 1.4 1.03 1.92.71.84 1.72 1.25 3.04 1.25.86 0 1.55-.09 2.05-.27.51-.18.99-.42 1.44-.72l2.81 8.74c-1.17.56-2.42.98-3.76 1.25-1.34.28-2.83.42-4.45.42-1.88 0-3.56-.3-5.06-.89-1.5-.59-2.75-1.41-3.76-2.44-2.38-2.33-3.57-5.64-3.57-9.93V86.34ZM693.65 72.8c-.86 0-1.69-.16-2.47-.49-.79-.33-1.47-.79-2.05-1.37a6.462 6.462 0 0 1-1.37-2.01c-.33-.76-.49-1.6-.49-2.51 0-.91.16-1.75.49-2.51a6.412 6.412 0 0 1 3.42-3.38 6.33 6.33 0 0 1 2.47-.49c1.77 0 3.29.62 4.56 1.86 1.27 1.24 1.9 2.75 1.9 4.52 0 1.77-.63 3.28-1.9 4.52-1.27 1.24-2.79 1.86-4.56 1.86Zm-4.94 42.27V77.82h9.96v37.25h-9.96ZM722.01 76.61c2.89 0 5.54.49 7.94 1.48 2.41.99 4.48 2.36 6.23 4.11 1.75 1.75 3.12 3.84 4.11 6.27.99 2.43 1.48 5.09 1.48 7.98 0 2.89-.49 5.55-1.48 7.98-.99 2.43-2.36 4.52-4.11 6.27-1.75 1.75-3.83 3.12-6.23 4.1-2.41.99-5.06 1.48-7.94 1.48-2.88 0-5.54-.49-7.94-1.48-2.41-.99-4.48-2.36-6.23-4.1-1.75-1.75-3.12-3.84-4.1-6.27-.98-2.43-1.48-5.09-1.48-7.98 0-2.89.49-5.55 1.48-7.98.99-2.43 2.36-4.52 4.1-6.27 1.74-1.75 3.83-3.12 6.23-4.11 2.41-.99 5.06-1.48 7.94-1.48Zm0 30.48c1.27 0 2.5-.24 3.69-.72a9.38 9.38 0 0 0 3.15-2.09c.91-.91 1.63-2.03 2.17-3.34.53-1.32.8-2.81.8-4.49 0-1.68-.27-3.17-.8-4.49-.53-1.32-1.25-2.43-2.17-3.34a9.38 9.38 0 0 0-3.15-2.09 9.777 9.777 0 0 0-3.69-.72c-1.27 0-2.56.24-3.73.72s-2.2 1.18-3.12 2.09c-.91.91-1.63 2.03-2.17 3.34-.53 1.32-.8 2.81-.8 4.49 0 1.68.27 3.17.8 4.49.53 1.32 1.25 2.43 2.17 3.34.92.91 1.95 1.61 3.12 2.09 1.17.48 2.41.72 3.73.72ZM753.71 82.69h.61c1.17-1.87 2.74-3.36 4.71-4.45 1.98-1.09 4.23-1.63 6.77-1.63 2.33 0 4.38.38 6.16 1.14 1.77.76 3.23 1.84 4.37 3.23 1.14 1.39 2 3.07 2.58 5.02.58 1.95.87 4.12.87 6.5v22.58h-9.96V93.72c0-2.69-.6-4.68-1.79-5.97s-2.93-1.94-5.21-1.94c-1.37 0-2.57.29-3.61.87a8.321 8.321 0 0 0-2.66 2.36c-.74.99-1.29 2.15-1.67 3.5-.38 1.34-.57 2.77-.57 4.3v18.24h-9.96V77.83h9.35v4.87l.01-.01Z"/></g><path d="M9 9v104.19h104.19C113.19 55.65 66.54 9 9 9ZM222.19 9v104.19H118C118 55.65 164.65 9 222.19 9Z" stroke="#F1F1F1" stroke-width="18" stroke-miterlimit="10"/><path d="M271.5 95c23.472 0 42.5-19.028 42.5-42.5S294.972 10 271.5 10 229 29.028 229 52.5 248.028 95 271.5 95Z" stroke="#F1F1F1" stroke-width="20" stroke-miterlimit="10"/><defs><clipPath id="a"><path fill="#fff" transform="translate(334)" d="M0 0h445.78v131.49H0z"/></clipPath></defs></svg>