<svg width="92" height="36" fill="none" xmlns="http://www.w3.org/2000/svg"><path d="M77.296.182c-4.85 0-9.777 2.341-12.513 6.884V0h-2.502C48.84 0 37.298 8.48 32.399 20.527 27.492 8.48 15.94 0 2.503 0H0v36h64.783V23.254c2.736 4.543 7.663 6.883 12.52 6.883 7.175 0 14.527-5.133 14.697-14.933v-.088C91.837 5.308 84.485.182 77.303.182h-.007ZM5.012 30.83V5.28c13.107 1.232 23.57 12.024 24.764 25.543H5.012v.007Zm54.759 0H35.007C36.202 17.31 46.664 6.52 59.771 5.287V30.83Zm17.525-5.855c-4.73 0-9.55-3.034-9.685-9.815.134-6.774 4.956-9.815 9.685-9.815 4.73 0 9.55 3.033 9.685 9.815-.134 6.774-4.956 9.815-9.685 9.815Z" fill="#F1F1F1"/></svg>