<svg width="332" height="58" fill="none" xmlns="http://www.w3.org/2000/svg"><g clip-path="url(#a)"><path d="M4 4.41v42.28h42.28C46.28 23.34 27.35 4.41 4 4.41Z" stroke="#F1F1F1" stroke-width="8" stroke-miterlimit="10"/><path d="M88.55 4.41v42.28H46.27c0-23.35 18.93-42.28 42.28-42.28ZM127.04 21.66c-.39 22.67-34.1 22.66-34.49 0 .39-22.67 34.1-22.66 34.49 0Z" stroke="#F1F1F1" stroke-width="8" stroke-miterlimit="10"/><path d="M138.18 24.02V.27h4.35v23.75h-4.35ZM154.77 22.29h-.27c-.51.62-1.12 1.15-1.84 1.59-.72.44-1.64.66-2.77.66-.84 0-1.63-.14-2.37-.41-.74-.27-1.39-.66-1.94-1.14-.55-.49-.98-1.07-1.29-1.76-.31-.69-.46-1.44-.46-2.26 0-.82.17-1.6.5-2.27a5.3 5.3 0 0 1 1.39-1.74c.6-.49 1.3-.86 2.11-1.11.81-.25 1.69-.38 2.64-.38 1.06 0 1.94.08 2.62.25.68.17 1.25.34 1.69.51v-.5c0-.86-.34-1.58-1.03-2.14s-1.54-.85-2.55-.85c-1.5 0-2.78.63-3.81 1.89l-3.15-2.16c1.72-2.17 4.08-3.25 7.07-3.25 2.52 0 4.44.59 5.77 1.77 1.33 1.18 1.99 2.94 1.99 5.26V24h-4.28v-1.73l-.02.02Zm0-4.88c-.51-.24-1.03-.44-1.58-.58-.54-.14-1.13-.22-1.78-.22-1.04 0-1.84.23-2.4.68-.56.45-.85 1.01-.85 1.68 0 .67.27 1.19.81 1.59.54.4 1.17.6 1.87.6.58 0 1.11-.1 1.59-.32.49-.21.9-.49 1.24-.83.34-.34.61-.74.8-1.19.19-.45.28-.92.28-1.41h.02ZM167.14 7.76h4.08v2.12h.27c.51-.8 1.2-1.44 2.07-1.92.87-.49 1.84-.73 2.9-.73 1.24 0 2.28.29 3.12.86.84.58 1.44 1.28 1.79 2.12.51-.82 1.23-1.52 2.16-2.11.93-.59 2.06-.88 3.38-.88 1 0 1.86.16 2.59.48.73.32 1.33.77 1.81 1.34.48.58.83 1.27 1.08 2.07.24.81.36 1.69.36 2.64V24h-4.34v-9.45c0-2.21-.91-3.32-2.72-3.32-.58 0-1.08.13-1.53.38-.44.25-.81.6-1.11 1.03-.3.43-.53.95-.7 1.54-.17.6-.25 1.24-.25 1.92v7.89h-4.34v-9.45c0-2.21-.95-3.32-2.85-3.32-.55 0-1.04.13-1.46.38-.42.25-.77.6-1.06 1.03-.29.43-.51.95-.66 1.54-.16.6-.23 1.24-.23 1.92v7.89h-4.35V7.76h-.01ZM204.86 22.29h-.27c-.51.62-1.12 1.15-1.84 1.59-.72.44-1.64.66-2.77.66-.84 0-1.63-.14-2.37-.41-.74-.27-1.39-.66-1.94-1.14-.55-.49-.98-1.07-1.29-1.76-.31-.69-.46-1.44-.46-2.26 0-.82.17-1.6.5-2.27a5.3 5.3 0 0 1 1.39-1.74c.6-.49 1.3-.86 2.11-1.11.81-.25 1.69-.38 2.64-.38 1.06 0 1.94.08 2.62.25.68.17 1.25.34 1.69.51v-.5c0-.86-.34-1.58-1.03-2.14s-1.54-.85-2.55-.85c-1.5 0-2.78.63-3.81 1.89l-3.15-2.16c1.72-2.17 4.08-3.25 7.07-3.25 2.52 0 4.44.59 5.77 1.77 1.33 1.18 1.99 2.94 1.99 5.26V24h-4.28v-1.73l-.02.02Zm0-4.88c-.51-.24-1.03-.44-1.58-.58-.54-.14-1.13-.22-1.78-.22-1.04 0-1.84.23-2.4.68-.56.45-.85 1.01-.85 1.68 0 .67.27 1.19.81 1.59.54.4 1.17.6 1.87.6.58 0 1.11-.1 1.59-.32.49-.21.9-.49 1.24-.83.34-.34.61-.74.8-1.19.19-.45.28-.92.28-1.41h.02ZM213.68 5.57c-.38 0-.74-.07-1.08-.22-.34-.14-.64-.34-.9-.6-.25-.25-.45-.55-.6-.88-.14-.33-.21-.7-.21-1.09 0-.39.07-.76.21-1.09.14-.33.34-.62.6-.88.26-.26.55-.45.9-.6.34-.14.7-.22 1.08-.22.77 0 1.44.27 1.99.81s.83 1.2.83 1.97-.28 1.43-.83 1.97c-.55.54-1.22.81-1.99.81v.02Zm-2.16 18.44V7.76h4.35v16.25h-4.35ZM224.96 24.55c-1.06 0-2.01-.13-2.84-.4-.83-.27-1.55-.61-2.16-1.04-.61-.43-1.12-.93-1.54-1.49-.42-.56-.74-1.13-.96-1.71l3.88-1.66c.38.84.88 1.46 1.51 1.87.63.41 1.33.61 2.11.61.78 0 1.43-.14 1.89-.43.46-.29.7-.63.7-1.03 0-.44-.19-.8-.58-1.08-.39-.28-1.06-.53-2.01-.75l-2.29-.5c-.51-.11-1.03-.29-1.58-.53a6.15 6.15 0 0 1-1.48-.93c-.44-.38-.81-.83-1.09-1.36-.28-.53-.43-1.15-.43-1.86 0-.8.17-1.5.51-2.12.34-.62.81-1.14 1.41-1.58.6-.43 1.3-.76 2.11-1 .81-.23 1.67-.35 2.6-.35 1.55 0 2.93.3 4.15.91 1.22.61 2.11 1.58 2.69 2.9l-3.75 1.53c-.31-.64-.76-1.11-1.36-1.39-.6-.29-1.19-.43-1.79-.43-.6 0-1.16.13-1.62.38-.46.25-.7.58-.7.98 0 .38.19.67.58.9.39.22.91.42 1.58.6l2.49.6c1.66.4 2.89 1.03 3.7 1.91.81.87 1.21 1.91 1.21 3.1 0 .71-.17 1.38-.5 2.02-.33.64-.8 1.21-1.41 1.71-.61.5-1.34.89-2.19 1.18-.85.29-1.8.43-2.84.43v.01ZM241.08 7.23c1.26 0 2.42.22 3.47.65 1.05.43 1.96 1.03 2.72 1.79a8.09 8.09 0 0 1 1.79 2.74c.43 1.06.65 2.22.65 3.48 0 1.26-.22 2.42-.65 3.48a8.29 8.29 0 0 1-1.79 2.74c-.76.76-1.67 1.36-2.72 1.79-1.05.43-2.21.65-3.47.65-1.26 0-2.42-.22-3.47-.65a8.203 8.203 0 0 1-2.72-1.79 8.189 8.189 0 0 1-1.79-2.74c-.43-1.06-.65-2.22-.65-3.48 0-1.26.22-2.42.65-3.48a8.29 8.29 0 0 1 1.79-2.74c.76-.76 1.67-1.36 2.72-1.79 1.05-.43 2.21-.65 3.47-.65Zm0 13.3c.55 0 1.09-.1 1.61-.31s.98-.51 1.38-.91c.4-.4.71-.88.95-1.46.23-.57.35-1.23.35-1.96s-.12-1.38-.35-1.96c-.23-.57-.55-1.06-.95-1.46-.4-.4-.86-.7-1.38-.91-.52-.21-1.06-.31-1.61-.31s-1.12.1-1.62.31c-.51.21-.96.51-1.36.91-.4.4-.71.88-.95 1.46-.23.58-.35 1.23-.35 1.96s.12 1.38.35 1.96c.23.58.55 1.06.95 1.46a4.115 4.115 0 0 0 2.98 1.22ZM254.91 9.88h.27c.51-.82 1.19-1.46 2.06-1.94.86-.48 1.85-.71 2.95-.71 1.02 0 1.91.17 2.69.5.77.33 1.41.8 1.91 1.41.5.61.87 1.34 1.13 2.19.25.85.38 1.8.38 2.84v9.85h-4.35V14.7c0-1.17-.26-2.04-.78-2.6s-1.28-.85-2.27-.85c-.6 0-1.12.13-1.58.38-.45.25-.84.6-1.16 1.03-.32.43-.56.94-.73 1.53-.17.59-.25 1.21-.25 1.87v7.96h-4.35V7.76h4.08v2.12ZM150.29 48.25h-.27c-.4.69-1.02 1.27-1.86 1.76-.84.49-1.88.73-3.12.73-1.04 0-2.03-.22-2.97-.65a7.983 7.983 0 0 1-2.49-1.79c-.72-.76-1.29-1.68-1.71-2.74-.42-1.06-.63-2.22-.63-3.48 0-1.26.21-2.42.63-3.48.42-1.06.99-1.97 1.71-2.74.72-.76 1.55-1.36 2.49-1.79.94-.43 1.93-.65 2.97-.65 1.24 0 2.28.24 3.12.73.84.49 1.46 1.07 1.86 1.76h.27l-.27-2.32v-7.13h4.35v23.75h-4.08v-1.96Zm-4.35-1.53c.58 0 1.12-.1 1.64-.31.52-.21.98-.51 1.38-.91.4-.4.72-.88.96-1.46.24-.57.37-1.23.37-1.96s-.12-1.38-.37-1.96c-.24-.57-.56-1.06-.96-1.46-.4-.4-.86-.7-1.38-.91-.52-.21-1.07-.31-1.64-.31-.57 0-1.12.11-1.64.33-.52.22-.98.53-1.38.93-.4.4-.72.88-.96 1.46s-.36 1.22-.36 1.92.12 1.35.36 1.92c.24.58.56 1.06.96 1.46.4.4.86.71 1.38.93.52.22 1.07.33 1.64.33ZM171.99 46.3a9.025 9.025 0 0 1-3.04 3.22c-1.27.82-2.83 1.23-4.66 1.23-1.24 0-2.38-.22-3.43-.65a8.236 8.236 0 0 1-2.74-1.81 8.288 8.288 0 0 1-1.81-2.74c-.43-1.05-.65-2.21-.65-3.47 0-1.17.21-2.28.63-3.33a8.469 8.469 0 0 1 1.76-2.75c.75-.78 1.64-1.41 2.67-1.87 1.03-.46 2.16-.7 3.4-.7 1.3 0 2.46.22 3.48.65 1.02.43 1.87 1.03 2.55 1.79.68.76 1.21 1.66 1.56 2.7.35 1.04.53 2.17.53 3.38v.4c-.02.13-.03.25-.03.36-.02.11-.03.23-.03.36h-12.24c.09.66.27 1.23.55 1.71s.62.87 1.03 1.19c.41.32.86.55 1.34.7.49.14.98.22 1.49.22 1 0 1.82-.23 2.47-.68.65-.45 1.17-1.02 1.54-1.71l3.62 1.79.01.01Zm-3.95-6.3c-.02-.29-.12-.61-.28-.96-.17-.35-.41-.69-.73-1a3.86 3.86 0 0 0-1.19-.76c-.47-.2-1.04-.3-1.71-.3-.93 0-1.75.27-2.46.8s-1.21 1.27-1.49 2.22h7.86ZM179.55 33.96h4.08v1.96h.27c.4-.69 1.02-1.27 1.86-1.76.84-.49 1.88-.73 3.12-.73 1.04 0 2.03.22 2.97.65.94.43 1.77 1.03 2.49 1.79.72.76 1.29 1.67 1.71 2.74.42 1.06.63 2.22.63 3.48 0 1.26-.21 2.42-.63 3.48a8.595 8.595 0 0 1-1.71 2.74c-.72.76-1.55 1.36-2.49 1.79-.94.43-1.93.65-2.97.65-1.24 0-2.28-.24-3.12-.73-.84-.49-1.46-1.07-1.86-1.76h-.27l.27 2.32v6.8h-4.35V33.96Zm8.43 12.77c.57 0 1.12-.11 1.64-.33.52-.22.98-.53 1.38-.93.4-.4.72-.88.96-1.46.24-.57.36-1.22.36-1.92s-.12-1.35-.36-1.92c-.24-.57-.56-1.06-.96-1.46-.4-.4-.86-.71-1.38-.93-.52-.22-1.07-.33-1.64-.33-.57 0-1.12.1-1.64.31-.52.21-.98.51-1.38.91-.4.4-.72.88-.96 1.46s-.37 1.23-.37 1.96.12 1.38.37 1.96c.24.58.56 1.06.96 1.46.4.4.86.7 1.38.91.52.21 1.07.31 1.64.31ZM197.96 33.96h4.08v2.26h.27c.2-.4.46-.76.8-1.09.33-.33.7-.62 1.11-.87.41-.25.85-.44 1.33-.6.47-.15.95-.23 1.41-.23.58 0 1.07.06 1.48.18.41.12.76.28 1.04.48l-1.16 3.88a4.57 4.57 0 0 0-.88-.32c-.32-.08-.71-.12-1.18-.12-.6 0-1.14.12-1.63.35-.49.23-.9.56-1.24.98-.34.42-.61.92-.8 1.48-.19.57-.28 1.18-.28 1.85v8h-4.35V33.94v.02ZM216.83 33.43c1.26 0 2.42.22 3.47.65 1.05.43 1.96 1.03 2.72 1.79a8.09 8.09 0 0 1 1.79 2.74c.43 1.06.65 2.22.65 3.48 0 1.26-.22 2.42-.65 3.48a8.29 8.29 0 0 1-1.79 2.74c-.76.76-1.67 1.36-2.72 1.79-1.05.43-2.21.65-3.47.65-1.26 0-2.42-.22-3.47-.65a8.203 8.203 0 0 1-2.72-1.79 8.189 8.189 0 0 1-1.79-2.74c-.43-1.06-.65-2.22-.65-3.48 0-1.26.22-2.42.65-3.48a8.29 8.29 0 0 1 1.79-2.74c.76-.76 1.67-1.36 2.72-1.79 1.05-.43 2.21-.65 3.47-.65Zm0 13.3c.55 0 1.09-.1 1.61-.31s.98-.51 1.38-.91c.4-.4.71-.88.95-1.46.23-.57.35-1.23.35-1.96s-.12-1.38-.35-1.96c-.23-.57-.55-1.06-.95-1.46-.4-.4-.86-.7-1.38-.91-.52-.21-1.06-.31-1.61-.31s-1.12.1-1.62.31c-.51.21-.96.51-1.36.91-.4.4-.71.88-.95 1.46-.23.58-.35 1.23-.35 1.96s.12 1.38.35 1.96c.23.58.55 1.06.95 1.46a4.115 4.115 0 0 0 2.98 1.22ZM239.02 48.25h-.27c-.4.69-1.02 1.27-1.86 1.76-.84.49-1.88.73-3.12.73-1.04 0-2.03-.22-2.97-.65a7.983 7.983 0 0 1-2.49-1.79c-.72-.76-1.29-1.68-1.71-2.74-.42-1.06-.63-2.22-.63-3.48 0-1.26.21-2.42.63-3.48.42-1.06.99-1.97 1.71-2.74.72-.76 1.55-1.36 2.49-1.79.94-.43 1.93-.65 2.97-.65 1.24 0 2.28.24 3.12.73.84.49 1.46 1.07 1.86 1.76h.27l-.27-2.32v-7.13h4.35v23.75h-4.08v-1.96Zm-4.35-1.53c.58 0 1.12-.1 1.64-.31.52-.21.98-.51 1.38-.91.4-.4.72-.88.96-1.46.24-.57.37-1.23.37-1.96s-.12-1.38-.37-1.96c-.24-.57-.56-1.06-.96-1.46-.4-.4-.86-.7-1.38-.91-.52-.21-1.07-.31-1.64-.31-.57 0-1.12.11-1.64.33-.52.22-.98.53-1.38.93-.4.4-.72.88-.96 1.46s-.36 1.22-.36 1.92.12 1.35.36 1.92c.24.58.56 1.06.96 1.46.4.4.86.71 1.38.93.52.22 1.07.33 1.64.33ZM256.74 48.09h-.27c-.51.82-1.19 1.47-2.06 1.94-.86.48-1.85.71-2.95.71-2.06 0-3.59-.63-4.59-1.89-1.01-1.26-1.51-2.94-1.51-5.04v-9.85h4.35v9.32c0 1.17.26 2.04.78 2.6s1.28.85 2.27.85c.6 0 1.12-.13 1.58-.38.45-.25.84-.6 1.16-1.03.32-.43.56-.94.73-1.53.17-.59.25-1.21.25-1.87v-7.96h4.35v16.25h-4.08v-2.12h-.01ZM278.46 46.06a9.178 9.178 0 0 1-2.97 3.37c-1.27.87-2.86 1.31-4.76 1.31-1.26 0-2.42-.22-3.47-.65a7.955 7.955 0 0 1-2.72-1.81 8.394 8.394 0 0 1-1.79-2.74c-.43-1.05-.65-2.21-.65-3.47 0-1.26.22-2.42.65-3.48a8.29 8.29 0 0 1 1.79-2.74c.76-.76 1.67-1.36 2.72-1.79 1.05-.43 2.21-.65 3.47-.65 1.88 0 3.46.43 4.74 1.29 1.28.86 2.22 1.98 2.82 3.35l-3.98 1.66c-.38-.75-.86-1.32-1.44-1.71-.59-.39-1.32-.58-2.21-.58-.58 0-1.12.11-1.63.33-.51.22-.96.53-1.34.93-.38.4-.69.88-.91 1.46-.22.58-.33 1.22-.33 1.92s.11 1.35.33 1.92c.22.58.53 1.06.91 1.46.39.4.83.71 1.34.93.51.22 1.05.33 1.63.33.91 0 1.67-.2 2.3-.61.63-.41 1.13-1 1.51-1.77l3.98 1.72.01.02ZM281.42 37.67h-2.85v-3.71h2.85v-4.98h4.35v4.98h3.98v3.71h-3.98v6.49c0 .39.04.75.12 1.08.08.33.23.61.45.84.31.37.75.55 1.33.55.38 0 .67-.04.9-.12.22-.08.43-.18.63-.31l1.23 3.81c-.51.24-1.06.43-1.64.55-.58.12-1.23.18-1.94.18-.82 0-1.55-.13-2.21-.39-.65-.26-1.2-.62-1.64-1.07-1.04-1.02-1.56-2.46-1.56-4.33v-7.28h-.02ZM294.19 31.77c-.38 0-.74-.07-1.08-.22-.34-.14-.64-.34-.9-.6-.25-.25-.45-.55-.6-.88-.14-.33-.21-.7-.21-1.09 0-.39.07-.76.21-1.09.14-.33.34-.62.6-.88.26-.26.55-.45.9-.6.34-.14.7-.22 1.08-.22.77 0 1.44.27 1.99.81s.83 1.2.83 1.97-.28 1.43-.83 1.97c-.55.54-1.22.81-1.99.81v.02Zm-2.16 18.44V33.96h4.35v16.25h-4.35ZM306.56 33.43c1.26 0 2.42.22 3.47.65 1.05.43 1.96 1.03 2.72 1.79a8.09 8.09 0 0 1 1.79 2.74c.43 1.06.65 2.22.65 3.48 0 1.26-.22 2.42-.65 3.48a8.29 8.29 0 0 1-1.79 2.74c-.76.76-1.67 1.36-2.72 1.79-1.05.43-2.21.65-3.47.65-1.26 0-2.42-.22-3.47-.65a8.203 8.203 0 0 1-2.72-1.79 8.189 8.189 0 0 1-1.79-2.74c-.43-1.06-.65-2.22-.65-3.48 0-1.26.22-2.42.65-3.48a8.29 8.29 0 0 1 1.79-2.74c.76-.76 1.67-1.36 2.72-1.79 1.05-.43 2.21-.65 3.47-.65Zm0 13.3c.55 0 1.09-.1 1.61-.31s.98-.51 1.38-.91c.4-.4.71-.88.95-1.46.23-.57.35-1.23.35-1.96s-.12-1.38-.35-1.96c-.23-.57-.55-1.06-.95-1.46-.4-.4-.86-.7-1.38-.91-.52-.21-1.06-.31-1.61-.31s-1.12.1-1.62.31c-.51.21-.96.51-1.36.91-.4.4-.71.88-.95 1.46-.23.58-.35 1.23-.35 1.96s.12 1.38.35 1.96c.23.58.55 1.06.95 1.46a4.115 4.115 0 0 0 2.98 1.22ZM320.39 36.08h.27c.51-.82 1.19-1.46 2.06-1.94.86-.48 1.85-.71 2.95-.71 1.02 0 1.91.17 2.69.5.77.33 1.41.8 1.91 1.41.5.61.87 1.34 1.13 2.19.25.85.38 1.8.38 2.84v9.85h-4.35V40.9c0-1.17-.26-2.04-.78-2.6s-1.28-.85-2.27-.85c-.6 0-1.12.13-1.58.38-.45.25-.84.6-1.16 1.03-.32.43-.56.94-.73 1.53-.17.59-.25 1.21-.25 1.87v7.96h-4.35V33.97h4.08v2.12-.01Z" fill="#F1F1F1"/></g><defs><clipPath id="a"><path fill="#fff" d="M0 0h331.77v57.38H0z"/></clipPath></defs></svg>