<svg width="42" height="31" viewBox="0 0 42 31" fill="none" xmlns="http://www.w3.org/2000/svg">
<path d="M3.875 0C1.73568 0 0 1.73568 0 3.875C0 5.09401 0.573177 6.24036 1.55 6.975L19.1167 20.15C20.037 20.8362 21.2964 20.8362 22.2167 20.15L39.7833 6.975C40.7602 6.24036 41.3333 5.09401 41.3333 3.875C41.3333 1.73568 39.5977 0 37.4583 0H3.875ZM0 9.04167V25.8333C0 28.6831 2.31693 31 5.16667 31H36.1667C39.0164 31 41.3333 28.6831 41.3333 25.8333V9.04167L23.7667 22.2167C21.926 23.5971 19.4073 23.5971 17.5667 22.2167L0 9.04167Z" fill="white"/>
</svg>
