<svg width="31" height="31" viewBox="0 0 31 31" fill="none" xmlns="http://www.w3.org/2000/svg">
<path d="M9.98418 1.48945C9.51797 0.363273 8.28887 -0.236141 7.11426 0.0847575L1.78613 1.53788C0.732617 1.82851 0 2.78515 0 3.87499C0 18.8543 12.1457 31 27.125 31C28.2148 31 29.1715 30.2674 29.4621 29.2139L30.9152 23.8857C31.2361 22.7111 30.6367 21.482 29.5105 21.0158L23.698 18.5939C22.7111 18.1822 21.5668 18.4668 20.8947 19.2963L18.4486 22.2812C14.1861 20.265 10.735 16.8139 8.71875 12.5514L11.7037 10.1113C12.5332 9.4332 12.8178 8.29491 12.4061 7.308L9.98418 1.4955V1.48945Z" fill="white"/>
</svg>
