<svg width="644" height="740" fill="none" xmlns="http://www.w3.org/2000/svg"><path d="M556.248 391.35a40.611 40.611 0 0 0 5.605-14.885 40.944 40.944 0 0 0-.519-15.938 40.524 40.524 0 0 0-6.561-14.472 39.588 39.588 0 0 0-11.565-10.718L143.852 87.451a40.855 40.855 0 0 0-21.534-6.123c-22.54 0-40.772 18.205-40.772 40.684v495.649a40.588 40.588 0 0 0 6.158 21.493c11.914 19.068 37.029 24.904 56.148 13.027l399.356-247.845a41.269 41.269 0 0 0 13.081-13.027l-.041.041Zm30.027 82.067L186.959 721.262c-57.356 35.63-132.823 18.082-168.484-39.081C6.418 662.913.008 640.526 0 617.661V122.053C0 54.616 54.74 0 122.359 0c22.821 0 45.2 6.37 64.6 18.41l399.316 247.887c57.355 35.589 74.944 110.793 39.243 167.997a122.246 122.246 0 0 1-39.243 39.123Z" fill="#fff" fill-opacity=".22"/></svg>