<svg width="32" height="27" fill="none" xmlns="http://www.w3.org/2000/svg"><path fill-rule="evenodd" clip-rule="evenodd" d="M26.77.006c1.407.04 2.506.48 3.265 1.306.952 1.038 1.385 2.704 1.281 4.96-.134 2.984-2.24 7.085-6.172 12.255-4.346 5.716-7.709 8.128-10.529 8.128-2.697 0-5.323-7.633-7.053-14.037-.909-3.297-1.67-4.682-2.547-4.638l-4.19-.993C4.328 3.913 8.593.385 10.507.385c2.503 0 2.891 1.383 3.663 4.132l.004.013.106.458c.517 2.239 2.737 11.857 3.403 11.857.22 0 1.003-1.003 2.413-3.243 1.156-1.84 2.093-3.576 2.274-4.224.217-.771.176-1.36-.119-1.755-.385-.51-1.153-.617-1.732-.617-.433 0-.88.062-1.329.188a.625.625 0 0 1-.636-.188.649.649 0 0 1-.132-.658C19.99 2.01 22.8-.126 26.77.006Z" fill="#F1F1F1"/><path d="m.825 6.987-.532.47a.846.846 0 0 0-.12 1.153l.652.85a.827.827 0 0 0 1.144.172l.034-.029C3.138 8.79 4.206 8.021 5.015 7.98l-4.19-.993Z" fill="#D6FF35"/></svg>