<svg width="32" height="29" fill="none" xmlns="http://www.w3.org/2000/svg"><g clip-path="url(#a)"><path fill-rule="evenodd" clip-rule="evenodd" d="M30.869 5.299c.23-1.381.225-2.806-.576-3.88-1.12-1.507-3.5-1.563-5.13-1.296-1.327.216-5.816 2.325-7.343 7.373 2.707-.218 4.124.208 3.863 3.382-.11 1.328-.738 2.782-1.442 4.176-.811 1.608-2.333 4.763-4.329 2.489-1.797-2.049-1.662-5.964-2.072-8.572-.228-1.464-.471-3.285-.922-4.792-.388-1.294-1.276-2.854-2.366-3.192-1.169-.366-2.61.205-3.46.736C4.395 3.416 2.337 5.822 0 7.806v.186c.463.473.588 1.246 1.27 1.35 1.607.253 3.139-1.598 4.208.328.65 1.176.853 2.464 1.269 3.73.556 1.689.986 3.526 1.442 5.465.771 3.286 1.718 8.198 4.384 9.4 1.36.617 3.405-.207 4.441-.86 2.804-1.769 4.99-4.332 6.86-6.94 4.276-6.17 6.637-13.163 6.992-15.16l.003-.006Z" fill="#fff"/></g><defs><clipPath id="a"><path fill="#fff" d="M0 0h31.001v28.479H0z"/></clipPath></defs></svg>