<svg width="30" height="30" fill="none" xmlns="http://www.w3.org/2000/svg"><path d="M21.879 9.324c-.363-.396-.89-.606-1.563-.626-1.9-.063-3.246.96-3.996 3.036a.31.31 0 0 0 .063.315.3.3 0 0 0 .305.09c.214-.06.428-.09.636-.09.277 0 .644.051.829.296.141.189.16.47.057.84-.087.31-.536 1.141-1.089 2.022-.675 1.072-1.05 1.552-1.155 1.552-.357 0-1.646-5.767-1.68-5.895-.37-1.32-.555-1.984-1.755-1.984-.917 0-2.958 1.689-4.635 3.16l-.255.225a.405.405 0 0 0-.057.552l.312.407a.396.396 0 0 0 .548.082l.016-.013c.543-.39 1.055-.758 1.442-.777.42-.021.784.642 1.219 2.22.828 3.066 2.085 6.72 3.377 6.72 1.35 0 2.959-1.155 5.04-3.891 1.882-2.475 2.89-4.439 2.954-5.867.05-1.08-.157-1.878-.613-2.374Z" fill="#F1F1F1"/><path d="M6 3a3 3 0 0 0-3 3v18a3 3 0 0 0 3 3h18a3 3 0 0 0 3-3V6a3 3 0 0 0-3-3H6Zm0-3h18a6 6 0 0 1 6 6v18a6 6 0 0 1-6 6H6a6 6 0 0 1-6-6V6a6 6 0 0 1 6-6Z" fill="#F1F1F1"/></svg>